<svg xmlns="http://www.w3.org/2000/svg" xmlns:xlink="http://www.w3.org/1999/xlink" xmlns:lucid="lucid" width="1020" height="1180"><g transform="translate(-160 -40)" lucid:page-tab-id="0_0"><path d="M580 60h485.33v60H580z" fill="none"/><use xlink:href="#a" transform="matrix(1,0,0,1,580,60) translate(43.888888888888914 35.33333333333333)"/><use xlink:href="#b" transform="matrix(1,0,0,1,580,60) translate(211.14814814814815 35.33333333333333)"/><use xlink:href="#c" transform="matrix(1,0,0,1,580,60) translate(249.5925925925926 35.33333333333333)"/><use xlink:href="#d" transform="matrix(1,0,0,1,580,60) translate(301.44444444444446 35.33333333333333)"/><path d="M480 186c0-3.3 2.7-6 6-6h668c3.3 0 6 2.7 6 6v1008c0 3.3-2.7 6-6 6H486c-3.3 0-6-2.7-6-6z" stroke="#5e5e5e" stroke-width="3" fill-opacity="0"/><use xlink:href="#e" transform="matrix(1,0,0,1,488,188) translate(289.4382716049383 17.77777777777778)"/><path d="M239.75 639.75c0 10.9-8.84 19.75-19.75 19.75-10.9 0-19.75-8.84-19.75-19.75 0-10.9 8.84-19.75 19.75-19.75 10.9 0 19.75 8.84 19.75 19.75z" stroke="#1071e5" stroke-width="3" fill="#fff"/><path d="M220 659.5v49.3c0 3.3 1.44 8.27 3.2 11.07L260 778m-40-63.2L180 778m0-98.75h80" stroke="#1071e5" stroke-width="3" fill="none"/><path d="M180 626c0-3.3 2.7-6 6-6h68c3.3 0 6 2.7 6 6v168c0 3.3-2.7 6-6 6h-68c-3.3 0-6-2.7-6-6z" fill="none"/><use xlink:href="#f" transform="matrix(1,0,0,1,100,778) translate(91.69753086419753 17.77777777777778)"/><path d="M720 340c0 33.14-35.82 60-80 60s-80-26.86-80-60 35.82-60 80-60 80 26.86 80 60z" stroke="#008a0e" stroke-width="3" fill="#fff"/><use xlink:href="#g" transform="matrix(1,0,0,1,560,280) translate(32.10499999999999 51.9)"/><use xlink:href="#h" transform="matrix(1,0,0,1,560,280) translate(113.95500000000001 51.9)"/><use xlink:href="#i" transform="matrix(1,0,0,1,560,280) translate(12.604999999999999 73.5)"/><use xlink:href="#j" transform="matrix(1,0,0,1,560,280) translate(49.504999999999995 73.5)"/><use xlink:href="#k" transform="matrix(1,0,0,1,560,280) translate(83.505 73.5)"/><path d="M720 508.88c0 33.13-35.82 60-80 60s-80-26.87-80-60c0-33.14 35.82-60 80-60s80 26.86 80 60z" stroke="#008a0e" stroke-width="3" fill="#fff"/><use xlink:href="#g" transform="matrix(1,0,0,1,560,448.875) translate(32.10499999999999 48.15)"/><use xlink:href="#l" transform="matrix(1,0,0,1,560,448.875) translate(113.95500000000001 48.15)"/><use xlink:href="#m" transform="matrix(1,0,0,1,560,448.875) translate(39.355 69.75)"/><use xlink:href="#n" transform="matrix(1,0,0,1,560,448.875) translate(87.255 69.75)"/><use xlink:href="#o" transform="matrix(1,0,0,1,560,448.875) translate(52.55499999999999 91.35000000000001)"/><path d="M720 677.75c0 33.14-35.82 60-80 60s-80-26.86-80-60 35.82-60 80-60 80 26.86 80 60z" stroke="#cc4e00" stroke-width="3" fill="#fff"/><use xlink:href="#p" transform="matrix(1,0,0,1,560,617.75) translate(39.05499999999999 51.9)"/><use xlink:href="#q" transform="matrix(1,0,0,1,560,617.75) translate(100.95500000000001 51.9)"/><use xlink:href="#r" transform="matrix(1,0,0,1,560,617.75) translate(41.605 73.5)"/><path d="M720 1080c0 33.14-35.82 60-80 60s-80-26.86-80-60 35.82-60 80-60 80 26.86 80 60z" stroke="#cc4e00" stroke-width="3" fill="#fff"/><use xlink:href="#g" transform="matrix(1,0,0,1,560,1020) translate(32.10499999999999 40.65)"/><use xlink:href="#l" transform="matrix(1,0,0,1,560,1020) translate(113.95500000000001 40.65)"/><use xlink:href="#m" transform="matrix(1,0,0,1,560,1020) translate(39.355 62.25)"/><use xlink:href="#n" transform="matrix(1,0,0,1,560,1020) translate(87.255 62.25)"/><use xlink:href="#r" transform="matrix(1,0,0,1,560,1020) translate(41.605000000000004 83.85000000000001)"/><path d="M720 878.88c0 33.13-35.82 60-80 60s-80-26.87-80-60c0-33.14 35.82-60 80-60s80 26.86 80 60z" stroke="#cc4e00" stroke-width="3" fill="#fff"/><use xlink:href="#g" transform="matrix(1,0,0,1,560,818.875) translate(32.10499999999999 40.65)"/><use xlink:href="#h" transform="matrix(1,0,0,1,560,818.875) translate(113.95500000000001 40.65)"/><use xlink:href="#s" transform="matrix(1,0,0,1,560,818.875) translate(44.08 62.25)"/><use xlink:href="#t" transform="matrix(1,0,0,1,560,818.875) translate(86.93 62.25)"/><use xlink:href="#u" transform="matrix(1,0,0,1,560,818.875) translate(37.105000000000004 83.85000000000001)"/><path d="M1060 680c0 33.14-35.82 60-80 60s-80-26.86-80-60 35.82-60 80-60 80 26.86 80 60z" stroke="#fcce14" stroke-width="3" fill="#fff"/><use xlink:href="#v" transform="matrix(1,0,0,1,900,620) translate(21.82999999999999 51.9)"/><use xlink:href="#n" transform="matrix(1,0,0,1,900,620) translate(104.78 51.9)"/><use xlink:href="#w" transform="matrix(1,0,0,1,900,620) translate(37.055 73.5)"/><use xlink:href="#x" transform="matrix(1,0,0,1,900,620) translate(86.055 73.5)"/><path d="M294.38 519V346c0-3.3 2.7-6 6-6H540M294.38 518.97V520" stroke="#5e5e5e" stroke-width="2" fill="none"/><path d="M555.26 340L541 344.64v-9.28z" stroke="#5e5e5e" stroke-width="2" fill="#5e5e5e"/><path d="M259.67 677.75H540M259.7 677.75h-4.03" stroke="#5e5e5e" stroke-width="2" fill="none"/><path d="M555.26 677.75L541 682.4v-9.3z" stroke="#5e5e5e" stroke-width="2" fill="#5e5e5e"/><path d="M294.38 676.75V526c0-3.3 2.7-6 6-6h240.97M294.38 676.72v1.03" stroke="#5e5e5e" stroke-width="2" fill="none"/><path d="M556.6 520l-14.25 4.64v-9.28z" stroke="#5e5e5e" stroke-width="2" fill="#5e5e5e"/><path d="M295.8 678.75v194.13c0 3.3 2.7 6 6 6H540M295.8 678.78v-1.03" stroke="#5e5e5e" stroke-width="2" fill="none"/><path d="M555.26 878.88L541 883.5v-9.26z" stroke="#5e5e5e" stroke-width="2" fill="#5e5e5e"/><path d="M296 678.75V1074c0 3.3 2.7 6 6 6h238M296 678.78v-1.03" stroke="#5e5e5e" stroke-width="2" fill="none"/><path d="M555.26 1080l-14.26 4.64v-9.28z" stroke="#5e5e5e" stroke-width="2" fill="#5e5e5e"/><path d="M722.5 340h3.02m4.02 0h6.04m4.02 0h6.04m4.02 0h6.04m4.02 0h6.04m4.02 0h6.04m4.02 0h6.04m4.02 0h6.04m4.02 0H806m4.02 0h6.04m4.02 0h6.04m4.02 0h6.04m4.02 0h6.04m4.02 0h6.04m4.02 0h6.04m4.02 0h6.04m4.02 0h6.04m4.02 0h6.04m4.02 0h6.04m4.02 0h6.04m4.02 0h6.04m4.02 0h6.04m4.02 0h6.04m4.02 0h6.04m4.02 0h6.04m4.02 0H974l2.7.73m2.57 2.57l.73 2.7v3.05m0 4.06v6.1m0 4.07v6.1m0 4.06v6.1m0 4.06v6.1m0 4.05v6.1m0 4.06v6.1m0 4.07v6.1m0 4.06v6.1m0 4.06v6.1m0 4.05v6.1m0 4.06v6.1m0 4.07v6.1m0 4.06v6.1m0 4.06v6.1m0 4.05v6.1m0 4.06v6.1m0 4.07v6.1m0 4.06v6.1m0 4.06v6.1m0 4.05v6.1m0 4.06v6.1m0 4.07v6.1m0 4.06v6.1m0 4.06v6.1m0 4.05V600" stroke="#5e5e5e" stroke-width="2" fill="none"/><path d="M722.53 341h-1.06l.03-.98v-.43l-.02-.6h1.05z" stroke="#5e5e5e" stroke-width=".05" fill="#5e5e5e"/><path d="M980 615.26L975.36 601h9.28z" stroke="#5e5e5e" stroke-width="2" fill="#5e5e5e"/><g><use xlink:href="#y" transform="matrix(1,0,0,1,799.679012345679,314.66666666666663) translate(0.005000000000002558 14.222222222222223)"/><use xlink:href="#z" transform="matrix(1,0,0,1,799.679012345679,314.66666666666663) translate(25.68401234567902 14.222222222222223)"/><use xlink:href="#A" transform="matrix(1,0,0,1,799.679012345679,314.66666666666663) translate(102.57290123456792 14.222222222222223)"/></g><path d="M722.5 1080h3.02m4.02 0h6.04m4.02 0h6.04m4.02 0h6.04m4.02 0h6.04m4.02 0h6.04m4.02 0h6.04m4.02 0h6.04m4.02 0H806m4.02 0h6.04m4.02 0h6.04m4.02 0h6.04m4.02 0h6.04m4.02 0h6.04m4.02 0h6.04m4.02 0h6.04m4.02 0h6.04m4.02 0h6.04m4.02 0h6.04m4.02 0h6.04m4.02 0h6.04m4.02 0h6.04m4.02 0h6.04m4.02 0h6.04m4.02 0h6.04m4.02 0H974l2.7-.73m2.57-2.57l.73-2.7v-3.04m0-4.05v-6.07m0-4.05v-6.08m0-4.05v-6.08m0-4.05v-6.07m0-4.06v-6.08m0-4.06v-6.07m0-4.06v-6.08m0-4.05v-6.07m0-4.05v-6.08m0-4.05v-6.08m0-4.05v-6.08m0-4.05v-6.1m0-4.04v-6.08m0-4.05v-6.07m0-4.06v-6.07m0-4.05v-6.08m0-4.05v-6.08m0-4.05v-6.08m0-4.05v-6.1m0-4.04v-6.08m0-4.05v-6.08m0-4.05v-6.08m0-4.05V838m0-4.06v-6.07m0-4.06v-6.06m0-4.05v-6.1m0-4.04v-6.08m0-4.05v-6.08m0-4.05v-6.08m0-4.05v-6.08m0-4.06V760" stroke="#5e5e5e" stroke-width="2" fill="none"/><path d="M722.53 1081h-1.06l.03-.98v-.43l-.02-.6h1.05z" stroke="#5e5e5e" stroke-width=".05" fill="#5e5e5e"/><path d="M980 744.74l4.64 14.26h-9.28z" stroke="#5e5e5e" stroke-width="2" fill="#5e5e5e"/><g><use xlink:href="#y" transform="matrix(1,0,0,1,761.0123456790122,1054.6666666666665) translate(0.005000000000002558 14.222222222222223)"/><use xlink:href="#z" transform="matrix(1,0,0,1,761.0123456790122,1054.6666666666665) translate(25.68401234567902 14.222222222222223)"/><use xlink:href="#A" transform="matrix(1,0,0,1,761.0123456790122,1054.6666666666665) translate(102.57290123456792 14.222222222222223)"/></g><path d="M722.43 680h2.95m3.94 0h5.9m3.95 0h5.9m3.95 0h5.9m3.95 0h5.9m3.95 0h5.9m3.94 0h5.9m3.95 0h5.92m3.94 0h5.9m3.95 0h5.92m3.94 0h5.9m3.94 0h5.9m3.95 0h5.9m3.95 0h5.9m3.95 0h5.9m3.95 0h5.9m3.94 0H880" stroke="#5e5e5e" stroke-width="2" fill="none"/><path d="M722.46 681h-1.08l.03-.3.06-1.7h1z" stroke="#5e5e5e" stroke-width=".05" fill="#5e5e5e"/><path d="M895.26 680L881 684.64v-9.28z" stroke="#5e5e5e" stroke-width="2" fill="#5e5e5e"/><g><use xlink:href="#y" transform="matrix(1,0,0,1,748.3108994958498,654.6666666666667) translate(0.005000000000002558 14.222222222222223)"/><use xlink:href="#z" transform="matrix(1,0,0,1,748.3108994958498,654.6666666666667) translate(25.68401234567902 14.222222222222223)"/><use xlink:href="#A" transform="matrix(1,0,0,1,748.3108994958498,654.6666666666667) translate(102.57290123456792 14.222222222222223)"/></g><path d="M722.5 508.88h3m4 0h6m3.98 0h6m4 0h6m3.98 0h6m4 0h6m3.98 0h6m4 0h6m3.98 0h6m4 0h6m3.98 0h6m4 0h5.98m4 0h6m4 0h5.98m4 0h6m4 0h5.98m4 0h6m4 0h5.98m4 0h6m4 0h5.98m4 0h3l2.7.72m2.57 2.58l.73 2.7v2.97m0 3.96v5.96m0 3.96v5.95m0 3.96v5.95m0 3.96v5.95m0 3.95v5.95m0 3.96v5.95m0 3.97v5.95m0 3.96v5.95m0 3.96v5.94m0 3.96v2.98" stroke="#5e5e5e" stroke-width="2" fill="none"/><path d="M722.53 509.88h-1.06l.03-.98v-.44l-.02-.58h1.05z" stroke="#5e5e5e" stroke-width=".05" fill="#5e5e5e"/><path d="M928.3 629.24l-4.64-14.26h9.27z" stroke="#5e5e5e" stroke-width="2" fill="#5e5e5e"/><g><use xlink:href="#y" transform="matrix(1,0,0,1,781.0123456790122,483.5416666666667) translate(0.005000000000002558 14.222222222222223)"/><use xlink:href="#z" transform="matrix(1,0,0,1,781.0123456790122,483.5416666666667) translate(25.68401234567902 14.222222222222223)"/><use xlink:href="#A" transform="matrix(1,0,0,1,781.0123456790122,483.5416666666667) translate(102.57290123456792 14.222222222222223)"/></g><path d="M722.5 878.88h2.95m3.93 0h5.9m3.92 0h5.9m3.92 0h5.9m3.93 0h5.9m3.92 0h5.9m3.92 0h5.9m3.92 0h5.9m3.92 0h5.9m3.93 0h5.9m3.92 0h5.88m3.93 0h5.9m3.94 0h5.9m3.92 0h5.9m3.92 0h5.9m3.93 0h5.9m3.93 0h5.9m3.93 0h5.9m3.92 0h5.9m3.92 0h5.9m3.93 0h5.9m3.92 0h5.9m3.92 0h2.95l2.7-.73m2.57-2.58l.72-2.7v-2.97m0-3.97v-5.95m0-3.96v-5.95m0-3.97v-5.95m0-3.96v-5.96m0-3.97v-5.95m0-3.97v-5.95m0-3.96v-5.95m0-3.98v-5.95m0-3.97v-5.95m0-3.96v-5.96m0-3.97v-5.95m0-3.96v-2.98" stroke="#5e5e5e" stroke-width="2" fill="none"/><path d="M722.53 879.88h-1.06l.03-.98v-.44l-.02-.6h1.05z" stroke="#5e5e5e" stroke-width=".05" fill="#5e5e5e"/><path d="M944.62 738.62l4.64 14.26H940z" stroke="#5e5e5e" stroke-width="2" fill="#5e5e5e"/><g><use xlink:href="#y" transform="matrix(1,0,0,1,771.679012345679,853.5416666666667) translate(0.005000000000002558 14.222222222222223)"/><use xlink:href="#z" transform="matrix(1,0,0,1,771.679012345679,853.5416666666667) translate(25.68401234567902 14.222222222222223)"/><use xlink:href="#A" transform="matrix(1,0,0,1,771.679012345679,853.5416666666667) translate(102.57290123456792 14.222222222222223)"/></g><defs><path fill="#333" d="M24-248c120-7 223 5 221 122C244-46 201 0 124 0H24v-248zM76-40c74 7 117-18 117-86 0-67-45-88-117-82v168" id="B"/><path fill="#333" d="M25-224v-37h50v37H25zM25 0v-190h50V0H25" id="C"/><path fill="#333" d="M133-34C117-15 103 5 69 4 32 3 11-16 11-54c-1-60 55-63 116-61 1-26-3-47-28-47-18 1-26 9-28 27l-52-2c7-38 36-58 82-57s74 22 75 68l1 82c-1 14 12 18 25 15v27c-30 8-71 5-69-32zm-48 3c29 0 43-24 42-57-32 0-66-3-65 30 0 17 8 27 23 27" id="D"/><path fill="#333" d="M195-6C206 82 75 100 31 46c-4-6-6-13-8-21l49-6c3 16 16 24 34 25 40 0 42-37 40-79-11 22-30 35-61 35-53 0-70-43-70-97 0-56 18-96 73-97 30 0 46 14 59 34l2-30h47zm-90-29c32 0 41-27 41-63 0-35-9-62-40-62-32 0-39 29-40 63 0 36 9 62 39 62" id="E"/><path fill="#333" d="M135-150c-39-12-60 13-60 57V0H25l-1-190h47c2 13-1 29 3 40 6-28 27-53 61-41v41" id="F"/><path fill="#333" d="M220-157c-53 9-28 100-34 157h-49v-107c1-27-5-49-29-50C55-147 81-57 75 0H25l-1-190h47c2 12-1 28 3 38 10-53 101-56 108 0 13-22 24-43 59-42 82 1 51 116 57 194h-49v-107c-1-25-5-48-29-50" id="G"/><path fill="#333" d="M185-48c-13 30-37 53-82 52C43 2 14-33 14-96s30-98 90-98c62 0 83 45 84 108H66c0 31 8 55 39 56 18 0 30-7 34-22zm-45-69c5-46-57-63-70-21-2 6-4 13-4 21h74" id="H"/><path fill="#333" d="M137-138c1-29-70-34-71-4 15 46 118 7 119 86 1 83-164 76-172 9l43-7c4 19 20 25 44 25 33 8 57-30 24-41C81-84 22-81 20-136c-2-80 154-74 161-7" id="I"/><g id="a"><use transform="matrix(0.07407407407407407,0,0,0.07407407407407407,0,0)" xlink:href="#B"/><use transform="matrix(0.07407407407407407,0,0,0.07407407407407407,19.185185185185183,0)" xlink:href="#C"/><use transform="matrix(0.07407407407407407,0,0,0.07407407407407407,26.592592592592588,0)" xlink:href="#D"/><use transform="matrix(0.07407407407407407,0,0,0.07407407407407407,41.407407407407405,0)" xlink:href="#E"/><use transform="matrix(0.07407407407407407,0,0,0.07407407407407407,57.629629629629626,0)" xlink:href="#F"/><use transform="matrix(0.07407407407407407,0,0,0.07407407407407407,68,0)" xlink:href="#D"/><use transform="matrix(0.07407407407407407,0,0,0.07407407407407407,82.81481481481481,0)" xlink:href="#G"/><use transform="matrix(0.07407407407407407,0,0,0.07407407407407407,106.51851851851852,0)" xlink:href="#G"/><use transform="matrix(0.07407407407407407,0,0,0.07407407407407407,130.2222222222222,0)" xlink:href="#H"/><use transform="matrix(0.07407407407407407,0,0,0.07407407407407407,145.037037037037,0)" xlink:href="#I"/></g><path fill="#333" d="M88-194c31-1 46 15 58 34l-1-101h50l1 261h-48c-2-10 0-23-3-31C134-8 116 4 84 4 32 4 16-41 15-95c0-56 19-97 73-99zm17 164c33 0 40-30 41-66 1-37-9-64-41-64s-38 30-39 65c0 43 13 65 39 65" id="J"/><g id="b"><use transform="matrix(0.07407407407407407,0,0,0.07407407407407407,0,0)" xlink:href="#J"/><use transform="matrix(0.07407407407407407,0,0,0.07407407407407407,16.22222222222222,0)" xlink:href="#H"/></g><path fill="#333" d="M190-63c-7 42-38 67-86 67-59 0-84-38-90-98-12-110 154-137 174-36l-49 2c-2-19-15-32-35-32-30 0-35 28-38 64-6 74 65 87 74 30" id="K"/><g id="c"><use transform="matrix(0.07407407407407407,0,0,0.07407407407407407,0,0)" xlink:href="#K"/><use transform="matrix(0.07407407407407407,0,0,0.07407407407407407,14.814814814814813,0)" xlink:href="#D"/><use transform="matrix(0.07407407407407407,0,0,0.07407407407407407,29.629629629629626,0)" xlink:href="#I"/></g><path fill="#333" d="M62-158H24l-5-90h48" id="L"/><path fill="#333" d="M85 4C-2 5 27-109 22-190h50c7 57-23 150 33 157 60-5 35-97 40-157h50l1 190h-47c-2-12 1-28-3-38-12 25-28 42-61 42" id="M"/><path fill="#333" d="M115-3C79 11 28 4 28-45v-112H4v-33h27l15-45h31v45h36v33H77v99c-1 23 16 31 38 25v30" id="N"/><path fill="#333" d="M25 0v-261h50V0H25" id="O"/><path fill="#333" d="M110-194c64 0 96 36 96 99 0 64-35 99-97 99-61 0-95-36-95-99 0-62 34-99 96-99zm-1 164c35 0 45-28 45-65 0-40-10-65-43-65-34 0-45 26-45 65 0 36 10 65 43 65" id="P"/><path fill="#333" d="M135-194c87-1 58 113 63 194h-50c-7-57 23-157-34-157-59 0-34 97-39 157H25l-1-190h47c2 12-1 28 3 38 12-26 28-41 61-42" id="Q"/><g id="d"><use transform="matrix(0.07407407407407407,0,0,0.07407407407407407,0,0)" xlink:href="#J"/><use transform="matrix(0.07407407407407407,0,0,0.07407407407407407,16.22222222222222,0)" xlink:href="#L"/><use transform="matrix(0.07407407407407407,0,0,0.07407407407407407,22.51851851851852,0)" xlink:href="#M"/><use transform="matrix(0.07407407407407407,0,0,0.07407407407407407,38.74074074074074,0)" xlink:href="#N"/><use transform="matrix(0.07407407407407407,0,0,0.07407407407407407,47.555555555555564,0)" xlink:href="#O"/><use transform="matrix(0.07407407407407407,0,0,0.07407407407407407,54.96296296296296,0)" xlink:href="#C"/><use transform="matrix(0.07407407407407407,0,0,0.07407407407407407,62.37037037037037,0)" xlink:href="#I"/><use transform="matrix(0.07407407407407407,0,0,0.07407407407407407,77.18518518518518,0)" xlink:href="#D"/><use transform="matrix(0.07407407407407407,0,0,0.07407407407407407,91.99999999999997,0)" xlink:href="#N"/><use transform="matrix(0.07407407407407407,0,0,0.07407407407407407,100.8148148148148,0)" xlink:href="#C"/><use transform="matrix(0.07407407407407407,0,0,0.07407407407407407,108.2222222222222,0)" xlink:href="#P"/><use transform="matrix(0.07407407407407407,0,0,0.07407407407407407,124.44444444444441,0)" xlink:href="#Q"/></g><path fill="#333" d="M185-189c-5-48-123-54-124 2 14 75 158 14 163 119 3 78-121 87-175 55-17-10-28-26-33-46l33-7c5 56 141 63 141-1 0-78-155-14-162-118-5-82 145-84 179-34 5 7 8 16 11 25" id="R"/><path fill="#333" d="M179-190L93 31C79 59 56 82 12 73V49c39 6 53-20 64-50L1-190h34L92-34l54-156h33" id="S"/><path fill="#333" d="M135-143c-3-34-86-38-87 0 15 53 115 12 119 90S17 21 10-45l28-5c4 36 97 45 98 0-10-56-113-15-118-90-4-57 82-63 122-42 12 7 21 19 24 35" id="T"/><path fill="#333" d="M59-47c-2 24 18 29 38 22v24C64 9 27 4 27-40v-127H5v-23h24l9-43h21v43h35v23H59v120" id="U"/><path d="M100-194c63 0 86 42 84 106H49c0 40 14 67 53 68 26 1 43-12 49-29l28 8c-11 28-37 45-77 45C44 4 14-33 15-96c1-61 26-98 85-98zm52 81c6-60-76-77-97-28-3 7-6 17-6 28h103zm-36-98l-58-49v-5h36c12 19 30 32 38 54h-16" id="V"/><path fill="#333" d="M210-169c-67 3-38 105-44 169h-31v-121c0-29-5-50-35-48C34-165 62-65 56 0H25l-1-190h30c1 10-1 24 2 32 10-44 99-50 107 0 11-21 27-35 58-36 85-2 47 119 55 194h-31v-121c0-29-5-49-35-48" id="W"/><path fill="#333" d="M100-194c63 0 86 42 84 106H49c0 40 14 67 53 68 26 1 43-12 49-29l28 8c-11 28-37 45-77 45C44 4 14-33 15-96c1-61 26-98 85-98zm52 81c6-60-76-77-97-28-3 7-6 17-6 28h103" id="X"/><g id="e"><use transform="matrix(0.06172839506172839,0,0,0.06172839506172839,0,0)" xlink:href="#R"/><use transform="matrix(0.06172839506172839,0,0,0.06172839506172839,14.814814814814813,0)" xlink:href="#S"/><use transform="matrix(0.06172839506172839,0,0,0.06172839506172839,25.925925925925924,0)" xlink:href="#T"/><use transform="matrix(0.06172839506172839,0,0,0.06172839506172839,37.03703703703704,0)" xlink:href="#U"/><use transform="matrix(0.05555555555555555,0,0,0.05555555555555555,43.20987654320988,0)" xlink:href="#V"/><use transform="matrix(0.06172839506172839,0,0,0.06172839506172839,54.32098765432099,0)" xlink:href="#W"/><use transform="matrix(0.06172839506172839,0,0,0.06172839506172839,72.77777777777777,0)" xlink:href="#X"/></g><path fill="#333" d="M212-179c-10-28-35-45-73-45-59 0-87 40-87 99 0 60 29 101 89 101 43 0 62-24 78-52l27 14C228-24 195 4 139 4 59 4 22-46 18-125c-6-104 99-153 187-111 19 9 31 26 39 46" id="Y"/><path fill="#333" d="M24 0v-261h32V0H24" id="Z"/><path fill="#333" d="M24-231v-30h32v30H24zM24 0v-190h32V0H24" id="aa"/><path fill="#333" d="M117-194c89-4 53 116 60 194h-32v-121c0-31-8-49-39-48C34-167 62-67 57 0H25l-1-190h30c1 10-1 24 2 32 11-22 29-35 61-36" id="ab"/><g id="f"><use transform="matrix(0.06172839506172839,0,0,0.06172839506172839,0,0)" xlink:href="#Y"/><use transform="matrix(0.06172839506172839,0,0,0.06172839506172839,15.987654320987653,0)" xlink:href="#Z"/><use transform="matrix(0.06172839506172839,0,0,0.06172839506172839,20.864197530864196,0)" xlink:href="#aa"/><use transform="matrix(0.06172839506172839,0,0,0.06172839506172839,25.74074074074074,0)" xlink:href="#X"/><use transform="matrix(0.06172839506172839,0,0,0.06172839506172839,38.08641975308642,0)" xlink:href="#ab"/><use transform="matrix(0.06172839506172839,0,0,0.06172839506172839,50.432098765432094,0)" xlink:href="#U"/></g><path d="M212-179c-10-28-35-45-73-45-59 0-87 40-87 99 0 60 29 101 89 101 43 0 62-24 78-52l27 14C228-24 195 4 139 4 59 4 22-46 18-125c-6-104 99-153 187-111 19 9 31 26 39 46" id="ac"/><path d="M100-194c62-1 85 37 85 99 1 63-27 99-86 99S16-35 15-95c0-66 28-99 85-99zM99-20c44 1 53-31 53-75 0-43-8-75-51-75s-53 32-53 75 10 74 51 75" id="ad"/><path d="M117-194c89-4 53 116 60 194h-32v-121c0-31-8-49-39-48C34-167 62-67 57 0H25l-1-190h30c1 10-1 24 2 32 11-22 29-35 61-36" id="ae"/><path d="M135-143c-3-34-86-38-87 0 15 53 115 12 119 90S17 21 10-45l28-5c4 36 97 45 98 0-10-56-113-15-118-90-4-57 82-63 122-42 12 7 21 19 24 35" id="af"/><path d="M84 4C-5 8 30-112 23-190h32v120c0 31 7 50 39 49 72-2 45-101 50-169h31l1 190h-30c-1-10 1-25-2-33-11 22-28 36-60 37" id="ag"/><path d="M24 0v-261h32V0H24" id="ah"/><path d="M59-47c-2 24 18 29 38 22v24C64 9 27 4 27-40v-127H5v-23h24l9-43h21v43h35v23H59v120" id="ai"/><path d="M100-194c63 0 86 42 84 106H49c0 40 14 67 53 68 26 1 43-12 49-29l28 8c-11 28-37 45-77 45C44 4 14-33 15-96c1-61 26-98 85-98zm52 81c6-60-76-77-97-28-3 7-6 17-6 28h103" id="aj"/><path d="M114-163C36-179 61-72 57 0H25l-1-190h30c1 12-1 29 2 39 6-27 23-49 58-41v29" id="ak"/><g id="g"><use transform="matrix(0.05,0,0,0.05,0,0)" xlink:href="#ac"/><use transform="matrix(0.05,0,0,0.05,12.950000000000001,0)" xlink:href="#ad"/><use transform="matrix(0.05,0,0,0.05,22.950000000000003,0)" xlink:href="#ae"/><use transform="matrix(0.05,0,0,0.05,32.95,0)" xlink:href="#af"/><use transform="matrix(0.05,0,0,0.05,41.95,0)" xlink:href="#ag"/><use transform="matrix(0.05,0,0,0.05,51.95,0)" xlink:href="#ah"/><use transform="matrix(0.05,0,0,0.05,55.900000000000006,0)" xlink:href="#ai"/><use transform="matrix(0.05,0,0,0.05,60.900000000000006,0)" xlink:href="#aj"/><use transform="matrix(0.05,0,0,0.05,70.9,0)" xlink:href="#ak"/></g><path d="M141-36C126-15 110 5 73 4 37 3 15-17 15-53c-1-64 63-63 125-63 3-35-9-54-41-54-24 1-41 7-42 31l-33-3c5-37 33-52 76-52 45 0 72 20 72 64v82c-1 20 7 32 28 27v20c-31 9-61-2-59-35zM48-53c0 20 12 33 32 33 41-3 63-29 60-74-43 2-92-5-92 41" id="al"/><g id="h"><use transform="matrix(0.05,0,0,0.05,0,0)" xlink:href="#ah"/><use transform="matrix(0.05,0,0,0.05,3.95,0)" xlink:href="#al"/></g><path d="M24-231v-30h32v30H24zM24 0v-190h32V0H24" id="am"/><g id="i"><use transform="matrix(0.05,0,0,0.05,0,0)" xlink:href="#ah"/><use transform="matrix(0.05,0,0,0.05,3.95,0)" xlink:href="#am"/><use transform="matrix(0.05,0,0,0.05,7.9,0)" xlink:href="#af"/><use transform="matrix(0.05,0,0,0.05,16.9,0)" xlink:href="#ai"/><use transform="matrix(0.05,0,0,0.05,21.9,0)" xlink:href="#aj"/></g><path d="M85-194c31 0 48 13 60 33l-1-100h32l1 261h-30c-2-10 0-23-3-31C134-8 116 4 85 4 32 4 16-35 15-94c0-66 23-100 70-100zm9 24c-40 0-46 34-46 75 0 40 6 74 45 74 42 0 51-32 51-76 0-42-9-74-50-73" id="an"/><g id="j"><use transform="matrix(0.05,0,0,0.05,0,0)" xlink:href="#an"/><use transform="matrix(0.05,0,0,0.05,10,0)" xlink:href="#aj"/><use transform="matrix(0.05,0,0,0.05,20,0)" xlink:href="#af"/></g><path d="M115-194c55 1 70 41 70 98S169 2 115 4C84 4 66-9 55-30l1 105H24l-1-265h31l2 30c10-21 28-34 59-34zm-8 174c40 0 45-34 45-75s-6-73-45-74c-42 0-51 32-51 76 0 43 10 73 51 73" id="ao"/><g id="k"><use transform="matrix(0.05,0,0,0.05,0,0)" xlink:href="#ao"/><use transform="matrix(0.05,0,0,0.05,10,0)" xlink:href="#ak"/><use transform="matrix(0.05,0,0,0.05,15.949999999999998,0)" xlink:href="#ad"/><use transform="matrix(0.05,0,0,0.05,25.950000000000003,0)" xlink:href="#an"/><use transform="matrix(0.05,0,0,0.05,35.95,0)" xlink:href="#ag"/><use transform="matrix(0.05,0,0,0.05,45.95,0)" xlink:href="#am"/><use transform="matrix(0.05,0,0,0.05,49.900000000000006,0)" xlink:href="#ai"/><use transform="matrix(0.05,0,0,0.05,54.900000000000006,0)" xlink:href="#af"/></g><g id="l"><use transform="matrix(0.05,0,0,0.05,0,0)" xlink:href="#ah"/><use transform="matrix(0.05,0,0,0.05,3.95,0)" xlink:href="#aj"/></g><path d="M100-194c63 0 86 42 84 106H49c0 40 14 67 53 68 26 1 43-12 49-29l28 8c-11 28-37 45-77 45C44 4 14-33 15-96c1-61 26-98 85-98zm52 81c6-60-76-77-97-28-3 7-6 17-6 28h103zm-74-98c8-23 27-35 38-54h36v5l-58 49H78" id="ap"/><g id="m"><use transform="matrix(0.05,0,0,0.05,0,0)" xlink:href="#an"/><use transform="matrix(0.05,0,0,0.05,10,0)" xlink:href="#ap"/><use transform="matrix(0.05,0,0,0.05,20,0)" xlink:href="#ai"/><use transform="matrix(0.05,0,0,0.05,25,0)" xlink:href="#al"/><use transform="matrix(0.05,0,0,0.05,35,0)" xlink:href="#am"/><use transform="matrix(0.05,0,0,0.05,38.95,0)" xlink:href="#ah"/></g><path d="M47-170H22l-4-78h33" id="aq"/><g id="n"><use transform="matrix(0.05,0,0,0.05,0,0)" xlink:href="#an"/><use transform="matrix(0.05,0,0,0.05,10,0)" xlink:href="#aq"/><use transform="matrix(0.05,0,0,0.05,13.4,0)" xlink:href="#ag"/><use transform="matrix(0.05,0,0,0.05,23.4,0)" xlink:href="#ae"/></g><g id="o"><use transform="matrix(0.05,0,0,0.05,0,0)" xlink:href="#ao"/><use transform="matrix(0.05,0,0,0.05,10,0)" xlink:href="#ak"/><use transform="matrix(0.05,0,0,0.05,15.949999999999998,0)" xlink:href="#ad"/><use transform="matrix(0.05,0,0,0.05,25.950000000000003,0)" xlink:href="#an"/><use transform="matrix(0.05,0,0,0.05,35.95,0)" xlink:href="#ag"/><use transform="matrix(0.05,0,0,0.05,45.95,0)" xlink:href="#am"/><use transform="matrix(0.05,0,0,0.05,49.900000000000006,0)" xlink:href="#ai"/></g><path d="M205 0l-28-72H64L36 0H1l101-248h38L239 0h-34zm-38-99l-47-123c-12 45-31 82-46 123h93" id="ar"/><path d="M24-231v-30h32v30H24zM-9 49c24 4 33-6 33-30v-209h32V24c2 40-23 58-65 49V49" id="as"/><g id="p"><use transform="matrix(0.05,0,0,0.05,0,0)" xlink:href="#ar"/><use transform="matrix(0.05,0,0,0.05,12,0)" xlink:href="#as"/><use transform="matrix(0.05,0,0,0.05,15.949999999999998,0)" xlink:href="#ad"/><use transform="matrix(0.05,0,0,0.05,25.950000000000003,0)" xlink:href="#ag"/><use transform="matrix(0.05,0,0,0.05,35.95,0)" xlink:href="#ai"/><use transform="matrix(0.05,0,0,0.05,40.95,0)" xlink:href="#aj"/><use transform="matrix(0.05,0,0,0.05,50.95,0)" xlink:href="#ak"/></g><g id="q"><use transform="matrix(0.05,0,0,0.05,0,0)" xlink:href="#ag"/><use transform="matrix(0.05,0,0,0.05,10,0)" xlink:href="#ae"/></g><g id="r"><use transform="matrix(0.05,0,0,0.05,0,0)" xlink:href="#ag"/><use transform="matrix(0.05,0,0,0.05,10,0)" xlink:href="#ai"/><use transform="matrix(0.05,0,0,0.05,15,0)" xlink:href="#am"/><use transform="matrix(0.05,0,0,0.05,18.95,0)" xlink:href="#ah"/><use transform="matrix(0.05,0,0,0.05,22.9,0)" xlink:href="#am"/><use transform="matrix(0.05,0,0,0.05,26.849999999999994,0)" xlink:href="#af"/><use transform="matrix(0.05,0,0,0.05,35.849999999999994,0)" xlink:href="#al"/><use transform="matrix(0.05,0,0,0.05,45.849999999999994,0)" xlink:href="#ai"/><use transform="matrix(0.05,0,0,0.05,50.849999999999994,0)" xlink:href="#aj"/><use transform="matrix(0.05,0,0,0.05,60.849999999999994,0)" xlink:href="#ag"/><use transform="matrix(0.05,0,0,0.05,70.85,0)" xlink:href="#ak"/></g><g id="s"><use transform="matrix(0.05,0,0,0.05,0,0)" xlink:href="#ah"/><use transform="matrix(0.05,0,0,0.05,3.95,0)" xlink:href="#am"/><use transform="matrix(0.05,0,0,0.05,7.9,0)" xlink:href="#af"/><use transform="matrix(0.05,0,0,0.05,16.9,0)" xlink:href="#ai"/><use transform="matrix(0.05,0,0,0.05,21.9,0)" xlink:href="#aj"/><use transform="matrix(0.05,0,0,0.05,31.899999999999995,0)" xlink:href="#ak"/></g><g id="t"><use transform="matrix(0.05,0,0,0.05,0,0)" xlink:href="#an"/><use transform="matrix(0.05,0,0,0.05,10,0)" xlink:href="#aj"/><use transform="matrix(0.05,0,0,0.05,20,0)" xlink:href="#af"/></g><g id="u"><use transform="matrix(0.05,0,0,0.05,0,0)" xlink:href="#ag"/><use transform="matrix(0.05,0,0,0.05,10,0)" xlink:href="#ai"/><use transform="matrix(0.05,0,0,0.05,15,0)" xlink:href="#am"/><use transform="matrix(0.05,0,0,0.05,18.95,0)" xlink:href="#ah"/><use transform="matrix(0.05,0,0,0.05,22.9,0)" xlink:href="#am"/><use transform="matrix(0.05,0,0,0.05,26.849999999999994,0)" xlink:href="#af"/><use transform="matrix(0.05,0,0,0.05,35.849999999999994,0)" xlink:href="#al"/><use transform="matrix(0.05,0,0,0.05,45.849999999999994,0)" xlink:href="#ai"/><use transform="matrix(0.05,0,0,0.05,50.849999999999994,0)" xlink:href="#aj"/><use transform="matrix(0.05,0,0,0.05,60.849999999999994,0)" xlink:href="#ag"/><use transform="matrix(0.05,0,0,0.05,70.85,0)" xlink:href="#ak"/><use transform="matrix(0.05,0,0,0.05,76.8,0)" xlink:href="#af"/></g><path d="M140-251c81 0 123 46 123 126C263-46 219 4 140 4 59 4 17-45 17-125s42-126 123-126zm0 227c63 0 89-41 89-101s-29-99-89-99c-61 0-89 39-89 99S79-25 140-24" id="at"/><path d="M115-194c53 0 69 39 70 98 0 66-23 100-70 100C84 3 66-7 56-30L54 0H23l1-261h32v101c10-23 28-34 59-34zm-8 174c40 0 45-34 45-75 0-40-5-75-45-74-42 0-51 32-51 76 0 43 10 73 51 73" id="au"/><g id="v"><use transform="matrix(0.05,0,0,0.05,0,0)" xlink:href="#at"/><use transform="matrix(0.05,0,0,0.05,14,0)" xlink:href="#au"/><use transform="matrix(0.05,0,0,0.05,24,0)" xlink:href="#ai"/><use transform="matrix(0.05,0,0,0.05,29,0)" xlink:href="#aj"/><use transform="matrix(0.05,0,0,0.05,39,0)" xlink:href="#ae"/><use transform="matrix(0.05,0,0,0.05,49,0)" xlink:href="#ai"/><use transform="matrix(0.05,0,0,0.05,54,0)" xlink:href="#am"/><use transform="matrix(0.05,0,0,0.05,57.95,0)" xlink:href="#ad"/><use transform="matrix(0.05,0,0,0.05,67.95,0)" xlink:href="#ae"/></g><path d="M143 0L79-87 56-68V0H24v-261h32v163l83-92h37l-77 82L181 0h-38" id="av"/><g id="w"><use transform="matrix(0.05,0,0,0.05,0,0)" xlink:href="#ai"/><use transform="matrix(0.05,0,0,0.05,5,0)" xlink:href="#ad"/><use transform="matrix(0.05,0,0,0.05,15,0)" xlink:href="#av"/><use transform="matrix(0.05,0,0,0.05,24,0)" xlink:href="#aj"/><use transform="matrix(0.05,0,0,0.05,34,0)" xlink:href="#ae"/></g><path d="M153-248C145-148 188 4 80 4 36 3 13-21 6-62l32-5c4 25 16 42 43 43 27 0 39-20 39-49v-147H72v-28h81" id="aw"/><path d="M266 0h-40l-56-210L115 0H75L2-248h35L96-30l15-64 43-154h32l59 218 59-218h35" id="ax"/><path d="M127-220V0H93v-220H8v-28h204v28h-85" id="ay"/><g id="x"><use transform="matrix(0.05,0,0,0.05,0,0)" xlink:href="#aw"/><use transform="matrix(0.05,0,0,0.05,9,0)" xlink:href="#ax"/><use transform="matrix(0.05,0,0,0.05,25.950000000000003,0)" xlink:href="#ay"/></g><path fill="#333" d="M15-91v-56l181-69v40L49-119l147 57v40" id="az"/><g id="y"><use transform="matrix(0.04938271604938272,0,0,0.04938271604938272,0,0)" xlink:href="#az"/><use transform="matrix(0.04938271604938272,0,0,0.04938271604938272,10.370370370370372,0)" xlink:href="#az"/></g><g id="z"><use transform="matrix(0.04938271604938272,0,0,0.04938271604938272,0,0)" xlink:href="#C"/><use transform="matrix(0.04938271604938272,0,0,0.04938271604938272,4.938271604938272,0)" xlink:href="#Q"/><use transform="matrix(0.04938271604938272,0,0,0.04938271604938272,15.753086419753087,0)" xlink:href="#K"/><use transform="matrix(0.04938271604938272,0,0,0.04938271604938272,25.629629629629633,0)" xlink:href="#O"/><use transform="matrix(0.04938271604938272,0,0,0.04938271604938272,30.567901234567906,0)" xlink:href="#M"/><use transform="matrix(0.04938271604938272,0,0,0.04938271604938272,41.38271604938272,0)" xlink:href="#J"/><use transform="matrix(0.04938271604938272,0,0,0.04938271604938272,52.19753086419754,0)" xlink:href="#H"/><use transform="matrix(0.04938271604938272,0,0,0.04938271604938272,62.074074074074076,0)" xlink:href="#I"/></g><path fill="#333" d="M15-22v-40l146-57-146-57v-40l181 69v56" id="aA"/><g id="A"><use transform="matrix(0.04938271604938272,0,0,0.04938271604938272,0,0)" xlink:href="#aA"/><use transform="matrix(0.04938271604938272,0,0,0.04938271604938272,10.370370370370372,0)" xlink:href="#aA"/></g></defs></g></svg>