<svg xmlns="http://www.w3.org/2000/svg" xmlns:xlink="http://www.w3.org/1999/xlink" xmlns:lucid="lucid" width="1649.83" height="1391.77"><g transform="translate(-140 -59)" lucid:page-tab-id="0_0"><path d="M160 430.42c0-3.32 2.7-6 6-6h293c3.3 0 6 2.68 6 6v8c0 3.3-1.9 7.9-4.24 10.24l-1.52 1.5c-2.34 2.36-6.93 4.26-10.24 4.26H166c-3.3 0-6-2.7-6-6z" fill="#fff"/><path d="M465 424.42v20l-10 10H160" stroke="#008a0e" stroke-width="3" fill="none"/><path d="M160 430.42c0-3.32 2.7-6 6-6h1472.57c3.3 0 6 2.68 6 6v388c0 3.3-2.7 6-6 6H166c-3.3 0-6-2.7-6-6zM160 624.42h20m15 0h20m15 0h20m15 0h20m15 0h20m15 0h20m15 0h20m15 0h20m15 0h20m15 0h20m15 0h20m15 0h20m15 0h20m15 0h20m15 0h20m15 0h20m15 0h20m15 0h20m15 0h20m15 0h20m15 0h20m15 0h20m15 0h20m15 0h20m15 0h20m15 0h20m15 0h20m15 0h20m15 0h20m15 0h20m15 0h20m15 0h20m15 0h20m15 0h20m15 0h20m15 0h20m15 0h20m15 0h20m15 0h20m15 0h20m15 0h20m15 0h20m15 0h14.57" stroke="#008a0e" stroke-width="3" fill="none"/><use xlink:href="#a" transform="matrix(1,0,0,1,168,424.41666666666674) translate(49.98148148148148 19.444444444444443)"/><use xlink:href="#b" transform="matrix(1,0,0,1,168,424.41666666666674) translate(151.83333333333331 19.444444444444443)"/><use xlink:href="#c" transform="matrix(1,0,0,1,168,424.41666666666674) translate(182.69753086419752 19.444444444444443)"/><use xlink:href="#d" transform="matrix(1,0,0,1,172,462.41666666666674) translate(9.10493827160495 19.444444444444443)"/><use xlink:href="#e" transform="matrix(1,0,0,1,172,462.41666666666674) translate(80.64814814814815 19.444444444444443)"/><use xlink:href="#f" transform="matrix(1,0,0,1,172,462.41666666666674) translate(144.72222222222223 19.444444444444443)"/><use xlink:href="#d" transform="matrix(1,0,0,1,172,632.4166666666667) translate(13.580246913580254 19.444444444444443)"/><use xlink:href="#g" transform="matrix(1,0,0,1,172,632.4166666666667) translate(85.12345679012346 19.444444444444443)"/><path d="M160 965.77c0-3.3 2.7-6 6-6h293c3.3 0 6 2.7 6 6v8c0 3.32-1.9 7.9-4.24 10.25l-1.52 1.5c-2.34 2.35-6.93 4.25-10.24 4.25H166c-3.3 0-6-2.68-6-6z" fill="#fff"/><path d="M465 959.77v20l-10 10H160" stroke="#008a0e" stroke-width="3" fill="none"/><path d="M160 965.77c0-3.3 2.7-6 6-6h1472.57c3.3 0 6 2.7 6 6v388c0 3.32-2.7 6-6 6H166c-3.3 0-6-2.68-6-6zM160 1159.77h20m15 0h20m15 0h20m15 0h20m15 0h20m15 0h20m15 0h20m15 0h20m15 0h20m15 0h20m15 0h20m15 0h20m15 0h20m15 0h20m15 0h20m15 0h20m15 0h20m15 0h20m15 0h20m15 0h20m15 0h20m15 0h20m15 0h20m15 0h20m15 0h20m15 0h20m15 0h20m15 0h20m15 0h20m15 0h20m15 0h20m15 0h20m15 0h20m15 0h20m15 0h20m15 0h20m15 0h20m15 0h20m15 0h20m15 0h20m15 0h20m15 0h20m15 0h14.57" stroke="#008a0e" stroke-width="3" fill="none"/><use xlink:href="#h" transform="matrix(1,0,0,1,168,959.7739999999897) translate(48.62345679012344 19.444444444444443)"/><use xlink:href="#i" transform="matrix(1,0,0,1,168,959.7739999999897) translate(157.08024691358025 19.444444444444443)"/><use xlink:href="#j" transform="matrix(1,0,0,1,172,997.7739999999897) translate(10.339506172839506 19.444444444444443)"/><use xlink:href="#e" transform="matrix(1,0,0,1,172,997.7739999999897) translate(79.41358024691358 19.444444444444443)"/><use xlink:href="#f" transform="matrix(1,0,0,1,172,997.7739999999897) translate(143.48765432098764 19.444444444444443)"/><use xlink:href="#j" transform="matrix(1,0,0,1,172,1167.7739999999897) translate(4.8148148148148096 19.444444444444443)"/><use xlink:href="#g" transform="matrix(1,0,0,1,172,1167.7739999999897) translate(73.88888888888889 19.444444444444443)"/><path d="M548.2 80h774.66v54H548.2z" fill="none"/><use xlink:href="#k" transform="matrix(1,0,0,1,548.1944444444443,80) translate(124.87037037037038 21.333333333333332)"/><use xlink:href="#l" transform="matrix(1,0,0,1,548.1944444444443,80) translate(277.3148148148148 21.333333333333332)"/><use xlink:href="#m" transform="matrix(1,0,0,1,548.1944444444443,80) translate(315.75925925925924 21.333333333333332)"/><use xlink:href="#n" transform="matrix(1,0,0,1,548.1944444444443,80) translate(445.9074074074074 21.333333333333332)"/><use xlink:href="#o" transform="matrix(1,0,0,1,548.1944444444443,80) translate(525.8333333333333 21.333333333333332)"/><use xlink:href="#p" transform="matrix(1,0,0,1,548.1944444444443,80) translate(387.5 53.33333333333333)"/><path d="M360 186c0-3.3 2.7-6 6-6h148c3.3 0 6 2.7 6 6v108c0 3.3-2.7 6-6 6H366c-3.3 0-6-2.7-6-6z" stroke="#1071e5" stroke-width="3" fill="#fff"/><use xlink:href="#q" transform="matrix(1,0,0,1,360,180) translate(28.029999999999994 51.9)"/><use xlink:href="#r" transform="matrix(1,0,0,1,360,180) translate(54.029999999999994 51.9)"/><use xlink:href="#s" transform="matrix(1,0,0,1,360,180) translate(110.98 51.9)"/><use xlink:href="#t" transform="matrix(1,0,0,1,360,180) translate(57.08 73.5)"/><path d="M1355.43 186c0-3.3 2.7-6 6-6h148c3.32 0 6 2.7 6 6v108c0 3.3-2.68 6-6 6h-148c-3.3 0-6-2.7-6-6z" stroke="#ba23f6" stroke-width="3" fill="#fff"/><use xlink:href="#u" transform="matrix(1,0,0,1,1355.4330708661414,180) translate(45.029999999999994 63.15)"/><path d="M440 302.5v3.92m0 7.85v7.85m0 7.84v7.85m0 7.86v7.84m0 7.85v7.85m0 7.84v7.85m0 7.84v7.84m0 7.85v7.85m0 7.84v7.85m0 7.85v7.84m0 7.85v7.86m0 7.84v7.85m0 7.85v7.84m0 7.85v7.84m0 7.84v7.85m0 7.85v7.84m0 7.85v7.85m0 7.84v7.85m0 7.86v7.84m0 7.85v3.92l-.67 1.62-1.6.66-1.63.67-.67 1.6v3.94m0 7.84v7.86m0 7.85v7.85m0 7.85v7.85m0 7.84v7.84m0 7.85v7.83m0 7.85v7.85m0 7.84v7.85m0 7.85v7.84m0 7.86v7.85m0 7.85v7.85m0 7.85v7.84m0 7.84v7.85m0 7.83v7.85m0 7.85v7.84m0 7.85v7.85m0 7.84v7.86m0 7.85v7.85m0 7.85v7.85m0 7.84v3.92" stroke="#5e5e5e" stroke-width="2" fill="none"/><path d="M441 302.53h-2v-1.03h2z" stroke="#5e5e5e" stroke-width=".05" fill="#5e5e5e"/><path d="M435.43 903.4v1.02M1435.43 302.5v4.03m0 8.07v8.07m0 8.07v8.07m0 8.08v8.06m0 8.07v8.08m0 8.07v8.07m0 8.07v8.05m0 8.07v8.07m0 8.06v8.07m0 8.07v8.06m0 8.07v8.07m0 8.07v8.07m0 8.06v8.07m0 8.07v8.07m0 8.08v8.07m0 8.06v8.08m0 8.07v8.07m0 8.07v8.06m0 8.06V597m0 8.06v8.07m0 8.07v8.07m0 8.06v8.07m0 8.07v8.07m0 8.07v8.08m0 8.06v8.07m0 8.08v8.07m0 8.07v8.06m0 8.07v8.07m0 8.07v8.06m0 8.07v8.06m0 8.06v8.07m0 8.07v8.07m0 8.07v8.06m0 8.07v8.07m0 8.07v8.08m0 8.07v8.06m0 8.08v4.04" stroke="#5e5e5e" stroke-width="2" fill="none"/><path d="M1436.43 302.53h-2v-1.03h2z" stroke="#5e5e5e" stroke-width=".05" fill="#5e5e5e"/><path d="M1435.43 883.4v1.02" stroke="#5e5e5e" stroke-width="2" fill="none"/><path d="M1415.43 370.42c0-3.32 2.7-6 6-6h28c3.32 0 6 2.68 6 6v468c0 3.3-2.68 6-6 6h-28c-3.3 0-6-2.7-6-6z" stroke="#000" stroke-opacity="0" stroke-width="3" fill="#dfe3e8"/><path d="M1414.43 578.92h-4.03m-8.06 0h-8.06m-8.07 0h-8.05m-8.06 0h-8.07m-8.07 0h-8.06m-8.06 0h-8.06m-8.07 0h-8.05m-8.06 0h-8.07m-8.07 0h-8.06m-8.06 0h-8.06m-8.07 0h-8.05m-8.06 0h-8.07m-8.07 0h-8.06m-8.06 0h-8.06m-8.07 0h-8.05m-8.06 0h-8.07m-8.07 0h-8.06m-8.06 0h-8.06m-8.07 0h-8.05m-8.06 0h-8.07m-8.07 0h-8.06m-8.06 0h-8.06m-8.07 0h-8.05m-8.06 0h-8.07m-8.07 0h-8.06m-8.06 0h-8.06m-8.07 0h-8.05m-8.06 0h-8.07m-8.07 0h-8.06m-8.06 0h-8.06m-8.07 0h-4.02l-2.1-.87-.86-2.1-.87-2.1-2.1-.87h-4.02m-8.04 0h-8.05m-8.04 0h-8.02m-8.04 0h-8.04m-8.04 0h-8.04m-8.04 0h-8.04m-8.04 0h-8.03m-8.04 0h-8.04m-8.05 0h-8.04m-8.03 0h-8.04m-8.04 0h-8.04m-8.04 0h-8.04m-8.04 0h-8.04m-8.04 0h-8.04m-8.04 0h-8.03m-8.04 0h-8.03m-8.04 0h-8.04m-8.05 0h-8.04m-8.03 0h-8.03m-8.04 0h-8.04m-8.04 0h-8.04m-8.04 0h-8.04m-8.04 0h-8.03m-8.04 0h-8.05m-8.04 0h-8.03m-8.04 0h-8.04m-8.05 0h-8.03m-8.04 0h-8.04m-8.04 0h-8.04m-8.04 0h-4.02" stroke="#5e5e5e" stroke-width="2" fill="none"/><path d="M1415.43 579.92h-1.02v-2h1.03z" stroke="#5e5e5e" stroke-width=".05" fill="#5e5e5e"/><path d="M443.24 572.98l14.26-4.63v9.27z" stroke="#5e5e5e" stroke-width="2" fill="#5e5e5e"/><use xlink:href="#v" transform="matrix(1,0,0,1,766.605146932847,547.6534818512685) translate(0.0049999999999954525 14.222222222222223)"/><use xlink:href="#w" transform="matrix(1,0,0,1,766.605146932847,547.6534818512685) translate(79.80746913580248 14.222222222222223)"/><use xlink:href="#x" transform="matrix(1,0,0,1,766.605146932847,547.6534818512685) translate(114.37537037037038 14.222222222222223)"/><use xlink:href="#y" transform="matrix(1,0,0,1,766.605146932847,547.6534818512685) translate(125.19018518518519 14.222222222222223)"/><use xlink:href="#z" transform="matrix(1,0,0,1,766.605146932847,547.6534818512685) translate(169.58524691358025 14.222222222222223)"/><use xlink:href="#A" transform="matrix(1,0,0,1,766.605146932847,547.6534818512685) translate(259.3630246913581 14.222222222222223)"/><path d="M1440 450.42c0-3.32 2.7-6 6-6h28c3.3 0 6 2.68 6 6v108c0 3.3-2.7 6-6 6h-28c-3.3 0-6-2.7-6-6z" stroke="#5e5e5e" stroke-width="3" fill="#fff"/><path d="M1482.5 464.04h33c3.3 0 6 2.7 6 6v67.93c0 3.3-2.7 6-6 6H1500" stroke="#5e5e5e" stroke-width="2" fill="none"/><path d="M1482.53 465.04h-1.03v-2h1.03z" stroke="#5e5e5e" stroke-width=".05" fill="#5e5e5e"/><path d="M1484.74 543.97l14.26-4.64v9.27z" stroke="#5e5e5e" stroke-width="2" fill="#5e5e5e"/><use xlink:href="#B" transform="matrix(1,0,0,1,1529.4999999999998,493.3358440937349) translate(0.0049999999999954525 14.222222222222223)"/><use xlink:href="#C" transform="matrix(1,0,0,1,1529.4999999999998,493.3358440937349) translate(79.80746913580248 14.222222222222223)"/><use xlink:href="#D" transform="matrix(1,0,0,1,1529.4999999999998,493.3358440937349) translate(105.43709876543211 14.222222222222223)"/><use xlink:href="#E" transform="matrix(1,0,0,1,1529.4999999999998,493.3358440937349) translate(150.81981481481483 14.222222222222223)"/><use xlink:href="#F" transform="matrix(1,0,0,1,1529.4999999999998,493.3358440937349) translate(176.44944444444445 14.222222222222223)"/><path d="M1414.43 744.42h-4.05m-8.1 0h-8.1m-8.12 0h-8.1m-8.12 0h-8.1m-8.1 0h-8.12m-8.1 0h-8.1m-8.12 0h-8.1m-8.1 0h-8.12m-8.1 0h-8.1m-8.12 0h-8.1m-8.1 0h-8.12m-8.1 0h-8.1m-8.12 0h-8.1m-8.12 0h-8.1m-8.1 0h-8.12m-8.1 0h-8.1m-8.12 0h-8.1m-8.1 0h-8.12m-8.1 0h-8.1m-8.12 0h-8.1m-8.1 0h-8.12m-8.1 0h-8.1m-8.12 0h-8.1m-8.1 0h-8.12m-8.1 0h-8.12m-8.1 0h-8.1m-8.12 0h-8.1m-8.1 0h-8.12m-8.1 0h-8.1m-8.12 0h-8.1m-8.1 0H928l-1.8-.76-.77-1.82-.75-1.83-1.83-.74h-4.04m-8.07 0h-8.1m-8.07 0h-8.1m-8.07 0h-8.1m-8.08 0h-8.1m-8.07 0h-8.1m-8.07 0h-8.1m-8.07 0h-8.08m-8.08 0h-8.1m-8.07 0h-8.1m-8.07 0h-8.1m-8.07 0h-8.1m-8.07 0h-8.08m-8.1 0h-8.07m-8.08 0h-8.08m-8.1 0h-8.07m-8.1 0h-8.07m-8.1 0h-8.07m-8.1 0h-8.07m-8.1 0h-8.07m-8.1 0h-8.08m-8.1 0h-8.07m-8.1 0h-8.07m-8.1 0h-8.07m-8.07 0h-8.1m-8.07 0h-8.1m-8.07 0h-8.1m-8.08 0h-8.1m-8.07 0h-8.1m-8.07 0h-4.05" stroke="#5e5e5e" stroke-width="2" fill="none"/><path d="M1415.43 745.42h-1.02v-2h1.03z" stroke="#5e5e5e" stroke-width=".05" fill="#5e5e5e"/><path d="M438.67 739.26l14.26-4.64v9.27z" stroke="#5e5e5e" stroke-width="2" fill="#5e5e5e"/><use xlink:href="#v" transform="matrix(1,0,0,1,724.1672090605133,713.9240759362036) translate(0.0049999999999954525 14.222222222222223)"/><use xlink:href="#G" transform="matrix(1,0,0,1,724.1672090605133,713.9240759362036) translate(79.80746913580248 14.222222222222223)"/><use xlink:href="#H" transform="matrix(1,0,0,1,724.1672090605133,713.9240759362036) translate(114.37537037037038 14.222222222222223)"/><use xlink:href="#I" transform="matrix(1,0,0,1,724.1672090605133,713.9240759362036) translate(232.5482098765432 14.222222222222223)"/><use xlink:href="#J" transform="matrix(1,0,0,1,724.1672090605133,713.9240759362036) translate(247.85685185185184 14.222222222222223)"/><use xlink:href="#K" transform="matrix(1,0,0,1,724.1672090605133,713.9240759362036) translate(308.99265432098764 14.222222222222223)"/><path d="M441 394.42H1396.92M441.03 394.42H440" stroke="#5e5e5e" stroke-width="2" fill="none"/><path d="M1412.2 394.42l-14.27 4.63v-9.27z" stroke="#5e5e5e" stroke-width="2" fill="#5e5e5e"/><g><use xlink:href="#L" transform="matrix(1,0,0,1,767.8646835812189,369.0833333333329) translate(0.0049999999999954525 14.222222222222223)"/><use xlink:href="#M" transform="matrix(1,0,0,1,767.8646835812189,369.0833333333329) translate(63.11611111111112 14.222222222222223)"/><use xlink:href="#N" transform="matrix(1,0,0,1,767.8646835812189,369.0833333333329) translate(114.57290123456791 14.222222222222223)"/><use xlink:href="#O" transform="matrix(1,0,0,1,767.8646835812189,369.0833333333329) translate(183.5605555555556 14.222222222222223)"/><use xlink:href="#P" transform="matrix(1,0,0,1,767.8646835812189,369.0833333333329) translate(236.84450617283954 14.222222222222223)"/></g><path d="M435.43 905.42v4.04m0 8.08v8.08m0 8.08v8.08m0 8.08v8.08m0 8.08v8.1m0 8.07v8.07m0 8.08v8.08m0 8.08v8.1m0 8.07v8.08m0 8.1v8.07m0 8.08v8.08m0 8.08v8.08m0 8.08v8.08m0 8.1v8.07m0 8.08v8.08m0 8.08v8.1m0 8.07v8.08m0 8.08v8.1m0 8.07v8.08m0 8.08v8.08m0 8.08v8.08m0 8.08v8.1m0 8.07v8.08m0 8.08v8.1m0 8.07v8.08m0 8.08v8.08m0 8.1v8.08m0 8.08v8.08m0 8.08v8.08m0 8.08v8.08m0 8.1v8.07m0 8.08v8.1m0 8.07v8.08m0 8.08v4.04M435.43 1438.75v1.02M1435.43 870.33v4.03m0 8.07v8.06m0 8.06v8.06m0 8.07v8.05m0 8.07v8.07m0 8.05v8.07m0 8.06v8.07m0 8.06v8.08m0 8.06v8.07m0 8.07v8.07m0 8.06v8.07m0 8.06v8.07m0 8.07v8.06m0 8.07v8.06m0 8.07v8.06m0 8.06v8.06m0 8.07v8.05m0 8.07v8.06m0 8.07v8.06m0 8.08v8.07m0 8.06v8.08m0 8.06v8.07m0 8.07v8.07m0 8.06v8.07m0 8.06v8.07m0 8.06v8.07m0 8.06v8.06m0 8.07v8.06m0 8.06v8.06m0 8.07v8.05m0 8.07v8.06m0 8.07v8.06m0 8.08v8.06m0 8.07v8.07m0 8.07v4.03M1435.43 1418.75v1.02" stroke="#5e5e5e" stroke-width="2" fill="none"/><path d="M1415.43 905.77c0-3.3 2.7-6 6-6h28c3.32 0 6 2.7 6 6v468c0 3.32-2.68 6-6 6h-28c-3.3 0-6-2.68-6-6z" stroke="#000" stroke-opacity="0" stroke-width="3" fill="#dfe3e8"/><path d="M1414.43 1114.27h-3.94m-7.9 0h-7.88m-7.9 0h-7.88m-7.9 0h-7.87m-7.9 0h-7.88m-7.9 0h-7.88m-7.9 0h-7.88m-7.88 0h-7.9m-7.88 0h-7.88m-7.9 0h-7.88m-7.9 0h-7.87m-7.9 0h-7.88m-7.88 0h-7.9m-7.9 0h-7.87m-7.9 0h-7.88m-7.9 0h-7.87m-7.9 0h-7.88m-7.88 0h-7.9m-7.88 0h-7.9m-7.87 0h-7.9m-7.88 0h-7.9m-7.88 0h-7.9m-7.88 0h-7.88m-7.9 0h-7.88m-7.88 0h-7.9m-7.88 0h-7.88m-7.9 0h-7.88m-7.9 0h-7.87m-7.9 0h-7.9m-7.87 0h-7.9m-7.88 0h-7.9m-7.87 0h-8.01m-8.13 0h-8.13m-8.12 0h-8.13m-8.13 0h-8.13m-8.14 0h-8.13m-8.13 0h-8.12m-8.13 0h-8.13m-8.13 0h-8.14m-8.13 0h-8.13m-8.13 0h-8.13m-8.13 0h-8.12m-8.13 0h-8.13m-8.13 0h-8.13m-8.13 0H710m-8.12 0h-8.13m-8.13 0h-8.13m-8.14 0h-8.13m-8.13 0h-8.13m-8.13 0h-8.13m-8.12 0h-8.12m-8.13 0h-8.13m-8.13 0h-8.13m-8.13 0h-8.12m-8.13 0h-8.13m-8.13 0h-8.14m-8.13 0h-8.13m-8.12 0h-8.13m-8.13 0h-8.13m-8.14 0h-8.13m-8.13 0h-4.07" stroke="#5e5e5e" stroke-width="2" fill="none"/><path d="M1415.43 1115.27h-1.02v-2h1.03z" stroke="#5e5e5e" stroke-width=".05" fill="#5e5e5e"/><path d="M438.67 1114.27l14.26-4.63v9.27z" stroke="#5e5e5e" stroke-width="2" fill="#5e5e5e"/><g><use xlink:href="#v" transform="matrix(1,0,0,1,764.1985119306684,1088.9383546525487) translate(0.0049999999999954525 14.222222222222223)"/><use xlink:href="#w" transform="matrix(1,0,0,1,764.1985119306684,1088.9383546525487) translate(79.80746913580248 14.222222222222223)"/><use xlink:href="#x" transform="matrix(1,0,0,1,764.1985119306684,1088.9383546525487) translate(114.37537037037038 14.222222222222223)"/><use xlink:href="#y" transform="matrix(1,0,0,1,764.1985119306684,1088.9383546525487) translate(125.19018518518519 14.222222222222223)"/><use xlink:href="#z" transform="matrix(1,0,0,1,764.1985119306684,1088.9383546525487) translate(169.58524691358025 14.222222222222223)"/><use xlink:href="#A" transform="matrix(1,0,0,1,764.1985119306684,1088.9383546525487) translate(259.3630246913581 14.222222222222223)"/></g><path d="M1440 985.77c0-3.3 2.7-6 6-6h28c3.3 0 6 2.7 6 6v108c0 3.32-2.7 6-6 6h-28c-3.3 0-6-2.68-6-6z" stroke="#5e5e5e" stroke-width="3" fill="#fff"/><path d="M1482.5 999.4h33c3.3 0 6 2.68 6 6v67.92c0 3.32-2.7 6-6 6H1500" stroke="#5e5e5e" stroke-width="2" fill="none"/><path d="M1482.53 1000.4h-1.03v-2h1.03z" stroke="#5e5e5e" stroke-width=".05" fill="#5e5e5e"/><path d="M1484.74 1079.32l14.26-4.63v9.26z" stroke="#5e5e5e" stroke-width="2" fill="#5e5e5e"/><g><use xlink:href="#B" transform="matrix(1,0,0,1,1529.4999999999998,1028.6931774270577) translate(0.0049999999999954525 14.222222222222223)"/><use xlink:href="#C" transform="matrix(1,0,0,1,1529.4999999999998,1028.6931774270577) translate(79.80746913580248 14.222222222222223)"/><use xlink:href="#D" transform="matrix(1,0,0,1,1529.4999999999998,1028.6931774270577) translate(105.43709876543211 14.222222222222223)"/><use xlink:href="#E" transform="matrix(1,0,0,1,1529.4999999999998,1028.6931774270577) translate(150.81981481481483 14.222222222222223)"/><use xlink:href="#F" transform="matrix(1,0,0,1,1529.4999999999998,1028.6931774270577) translate(176.44944444444445 14.222222222222223)"/></g><path d="M1414.43 1279.77h-3.94m-7.9 0h-7.88m-7.9 0h-7.88m-7.9 0h-7.87m-7.9 0h-7.88m-7.9 0h-7.88m-7.9 0h-7.88m-7.88 0h-7.9m-7.88 0h-7.88m-7.9 0h-7.88m-7.9 0h-7.87m-7.9 0h-7.88m-7.88 0h-7.9m-7.9 0h-7.87m-7.9 0h-7.88m-7.9 0h-7.87m-7.9 0h-7.88m-7.88 0h-7.9m-7.88 0h-7.9m-7.87 0h-7.9m-7.88 0h-7.9m-7.88 0h-7.9m-7.88 0h-7.88m-7.9 0h-7.88m-7.88 0h-7.9m-7.88 0h-7.88m-7.9 0h-7.88m-7.9 0h-7.87m-7.9 0h-7.9m-7.87 0h-7.9m-7.88 0h-7.9m-7.87 0h-8.01m-8.13 0h-8.13m-8.12 0h-8.13m-8.13 0h-8.13m-8.14 0h-8.13m-8.13 0h-8.12m-8.13 0h-8.13m-8.13 0h-8.14m-8.13 0h-8.13m-8.13 0h-8.13m-8.13 0h-8.12m-8.13 0h-8.13m-8.13 0h-8.13m-8.13 0H710m-8.12 0h-8.13m-8.13 0h-8.13m-8.14 0h-8.13m-8.13 0h-8.13m-8.13 0h-8.13m-8.12 0h-8.12m-8.13 0h-8.13m-8.13 0h-8.13m-8.13 0h-8.12m-8.13 0h-8.13m-8.13 0h-8.14m-8.13 0h-8.13m-8.12 0h-8.13m-8.13 0h-8.13m-8.14 0h-8.13m-8.13 0h-4.07" stroke="#5e5e5e" stroke-width="2" fill="none"/><path d="M1415.43 1280.77h-1.02v-2h1.03z" stroke="#5e5e5e" stroke-width=".05" fill="#5e5e5e"/><path d="M438.67 1279.77l14.26-4.63v9.27z" stroke="#5e5e5e" stroke-width="2" fill="#5e5e5e"/><g><use xlink:href="#v" transform="matrix(1,0,0,1,646.0256687413896,1254.4396667783196) translate(0.0049999999999954525 14.222222222222223)"/><use xlink:href="#Q" transform="matrix(1,0,0,1,646.0256687413896,1254.4396667783196) translate(79.80746913580248 14.222222222222223)"/><use xlink:href="#R" transform="matrix(1,0,0,1,646.0256687413896,1254.4396667783196) translate(114.37537037037038 14.222222222222223)"/><use xlink:href="#S" transform="matrix(1,0,0,1,646.0256687413896,1254.4396667783196) translate(246.47413580246914 14.222222222222223)"/><use xlink:href="#x" transform="matrix(1,0,0,1,646.0256687413896,1254.4396667783196) translate(300.64697530864197 14.222222222222223)"/><use xlink:href="#T" transform="matrix(1,0,0,1,646.0256687413896,1254.4396667783196) translate(311.4617901234568 14.222222222222223)"/><use xlink:href="#U" transform="matrix(1,0,0,1,646.0256687413896,1254.4396667783196) translate(404.99265432098764 14.222222222222223)"/><use xlink:href="#V" transform="matrix(1,0,0,1,646.0256687413896,1254.4396667783196) translate(482.8198148148148 14.222222222222223)"/></g><path d="M436.43 920h960.5M436.46 920h-1.03" stroke="#5e5e5e" stroke-width="2" fill="none"/><path d="M1412.2 920l-14.27 4.63v-9.27z" stroke="#5e5e5e" stroke-width="2" fill="#5e5e5e"/><g><use xlink:href="#L" transform="matrix(1,0,0,1,739.459488307154,894.6656666666673) translate(0.0049999999999954525 14.222222222222223)"/><use xlink:href="#M" transform="matrix(1,0,0,1,739.459488307154,894.6656666666673) translate(63.11611111111112 14.222222222222223)"/><use xlink:href="#N" transform="matrix(1,0,0,1,739.459488307154,894.6656666666673) translate(114.57290123456791 14.222222222222223)"/><use xlink:href="#O" transform="matrix(1,0,0,1,739.459488307154,894.6656666666673) translate(183.5605555555556 14.222222222222223)"/><use xlink:href="#P" transform="matrix(1,0,0,1,739.459488307154,894.6656666666673) translate(236.84450617283954 14.222222222222223)"/></g><defs><path fill="#333" d="M137 0h-34L2-248h35l83 218 83-218h36" id="W"/><path fill="#333" d="M141-36C126-15 110 5 73 4 37 3 15-17 15-53c-1-64 63-63 125-63 3-35-9-54-41-54-24 1-41 7-42 31l-33-3c5-37 33-52 76-52 45 0 72 20 72 64v82c-1 20 7 32 28 27v20c-31 9-61-2-59-35zM48-53c0 20 12 33 32 33 41-3 63-29 60-74-43 2-92-5-92 41" id="X"/><path fill="#333" d="M24 0v-261h32V0H24" id="Y"/><path fill="#333" d="M24-231v-30h32v30H24zM24 0v-190h32V0H24" id="Z"/><path fill="#333" d="M85-194c31 0 48 13 60 33l-1-100h32l1 261h-30c-2-10 0-23-3-31C134-8 116 4 85 4 32 4 16-35 15-94c0-66 23-100 70-100zm9 24c-40 0-46 34-46 75 0 40 6 74 45 74 42 0 51-32 51-76 0-42-9-74-50-73" id="aa"/><path fill="#333" d="M59-47c-2 24 18 29 38 22v24C64 9 27 4 27-40v-127H5v-23h24l9-43h21v43h35v23H59v120" id="ab"/><path fill="#333" d="M100-194c62-1 85 37 85 99 1 63-27 99-86 99S16-35 15-95c0-66 28-99 85-99zM99-20c44 1 53-31 53-75 0-43-8-75-51-75s-53 32-53 75 10 74 51 75" id="ac"/><path fill="#333" d="M117-194c89-4 53 116 60 194h-32v-121c0-31-8-49-39-48C34-167 62-67 57 0H25l-1-190h30c1 10-1 24 2 32 11-22 29-35 61-36" id="ad"/><g id="a"><use transform="matrix(0.06172839506172839,0,0,0.06172839506172839,0,0)" xlink:href="#W"/><use transform="matrix(0.06172839506172839,0,0,0.06172839506172839,13.148148148148147,0)" xlink:href="#X"/><use transform="matrix(0.06172839506172839,0,0,0.06172839506172839,25.493827160493826,0)" xlink:href="#Y"/><use transform="matrix(0.06172839506172839,0,0,0.06172839506172839,30.370370370370367,0)" xlink:href="#Z"/><use transform="matrix(0.06172839506172839,0,0,0.06172839506172839,35.24691358024691,0)" xlink:href="#aa"/><use transform="matrix(0.06172839506172839,0,0,0.06172839506172839,47.59259259259259,0)" xlink:href="#X"/><use transform="matrix(0.06172839506172839,0,0,0.06172839506172839,59.938271604938265,0)" xlink:href="#ab"/><use transform="matrix(0.06172839506172839,0,0,0.06172839506172839,66.1111111111111,0)" xlink:href="#Z"/><use transform="matrix(0.06172839506172839,0,0,0.06172839506172839,70.98765432098764,0)" xlink:href="#ac"/><use transform="matrix(0.06172839506172839,0,0,0.06172839506172839,83.33333333333333,0)" xlink:href="#ad"/></g><path fill="#333" d="M84 4C-5 8 30-112 23-190h32v120c0 31 7 50 39 49 72-2 45-101 50-169h31l1 190h-30c-1-10 1-25-2-33-11 22-28 36-60 37" id="ae"/><g id="b"><use transform="matrix(0.06172839506172839,0,0,0.06172839506172839,0,0)" xlink:href="#aa"/><use transform="matrix(0.06172839506172839,0,0,0.06172839506172839,12.345679012345679,0)" xlink:href="#ae"/></g><path fill="#333" d="M143 0L79-87 56-68V0H24v-261h32v163l83-92h37l-77 82L181 0h-38" id="af"/><path fill="#333" d="M100-194c63 0 86 42 84 106H49c0 40 14 67 53 68 26 1 43-12 49-29l28 8c-11 28-37 45-77 45C44 4 14-33 15-96c1-61 26-98 85-98zm52 81c6-60-76-77-97-28-3 7-6 17-6 28h103" id="ag"/><g id="c"><use transform="matrix(0.06172839506172839,0,0,0.06172839506172839,0,0)" xlink:href="#ab"/><use transform="matrix(0.06172839506172839,0,0,0.06172839506172839,6.172839506172839,0)" xlink:href="#ac"/><use transform="matrix(0.06172839506172839,0,0,0.06172839506172839,18.51851851851852,0)" xlink:href="#af"/><use transform="matrix(0.06172839506172839,0,0,0.06172839506172839,29.62962962962963,0)" xlink:href="#ag"/><use transform="matrix(0.06172839506172839,0,0,0.06172839506172839,41.97530864197531,0)" xlink:href="#ad"/></g><path fill="#333" d="M26 75v-336h71v23H56V52h41v23H26" id="ah"/><path fill="#333" d="M127-220V0H93v-220H8v-28h204v28h-85" id="ai"/><g id="d"><use transform="matrix(0.06172839506172839,0,0,0.06172839506172839,0,0)" xlink:href="#ah"/><use transform="matrix(0.06172839506172839,0,0,0.06172839506172839,6.172839506172839,0)" xlink:href="#ai"/><use transform="matrix(0.06172839506172839,0,0,0.06172839506172839,17.22222222222222,0)" xlink:href="#ac"/><use transform="matrix(0.06172839506172839,0,0,0.06172839506172839,29.5679012345679,0)" xlink:href="#af"/><use transform="matrix(0.06172839506172839,0,0,0.06172839506172839,40.67901234567901,0)" xlink:href="#ag"/><use transform="matrix(0.06172839506172839,0,0,0.06172839506172839,53.02469135802469,0)" xlink:href="#ad"/></g><path fill="#333" d="M108 0H70L1-190h34L89-25l56-165h34" id="aj"/><g id="e"><use transform="matrix(0.06172839506172839,0,0,0.06172839506172839,0,0)" xlink:href="#aj"/><use transform="matrix(0.06172839506172839,0,0,0.06172839506172839,11.11111111111111,0)" xlink:href="#X"/><use transform="matrix(0.06172839506172839,0,0,0.06172839506172839,23.45679012345679,0)" xlink:href="#Y"/><use transform="matrix(0.06172839506172839,0,0,0.06172839506172839,28.333333333333336,0)" xlink:href="#Z"/><use transform="matrix(0.06172839506172839,0,0,0.06172839506172839,33.20987654320988,0)" xlink:href="#aa"/><use transform="matrix(0.06172839506172839,0,0,0.06172839506172839,45.55555555555556,0)" xlink:href="#ag"/></g><path fill="#333" d="M3 75V52h41v-290H3v-23h71V75H3" id="ak"/><use transform="matrix(0.06172839506172839,0,0,0.06172839506172839,0,0)" xlink:href="#ak" id="f"/><g id="g"><use transform="matrix(0.06172839506172839,0,0,0.06172839506172839,0,0)" xlink:href="#Z"/><use transform="matrix(0.06172839506172839,0,0,0.06172839506172839,4.876543209876543,0)" xlink:href="#ad"/><use transform="matrix(0.06172839506172839,0,0,0.06172839506172839,17.22222222222222,0)" xlink:href="#aj"/><use transform="matrix(0.06172839506172839,0,0,0.06172839506172839,28.333333333333332,0)" xlink:href="#X"/><use transform="matrix(0.06172839506172839,0,0,0.06172839506172839,40.67901234567901,0)" xlink:href="#Y"/><use transform="matrix(0.06172839506172839,0,0,0.06172839506172839,45.55555555555556,0)" xlink:href="#Z"/><use transform="matrix(0.06172839506172839,0,0,0.06172839506172839,50.4320987654321,0)" xlink:href="#aa"/><use transform="matrix(0.06172839506172839,0,0,0.06172839506172839,62.77777777777778,0)" xlink:href="#ag"/><use transform="matrix(0.06172839506172839,0,0,0.06172839506172839,75.12345679012346,0)" xlink:href="#ak"/></g><path fill="#333" d="M212-179c-10-28-35-45-73-45-59 0-87 40-87 99 0 60 29 101 89 101 43 0 62-24 78-52l27 14C228-24 195 4 139 4 59 4 22-46 18-125c-6-104 99-153 187-111 19 9 31 26 39 46" id="al"/><path fill="#333" d="M114-163C36-179 61-72 57 0H25l-1-190h30c1 12-1 29 2 39 6-27 23-49 58-41v29" id="am"/><g id="h"><use transform="matrix(0.06172839506172839,0,0,0.06172839506172839,0,0)" xlink:href="#al"/><use transform="matrix(0.06172839506172839,0,0,0.06172839506172839,15.987654320987653,0)" xlink:href="#ac"/><use transform="matrix(0.06172839506172839,0,0,0.06172839506172839,28.333333333333332,0)" xlink:href="#ad"/><use transform="matrix(0.06172839506172839,0,0,0.06172839506172839,40.67901234567901,0)" xlink:href="#ab"/><use transform="matrix(0.06172839506172839,0,0,0.06172839506172839,46.851851851851855,0)" xlink:href="#am"/><use transform="matrix(0.06172839506172839,0,0,0.06172839506172839,54.19753086419753,0)" xlink:href="#X"/><use transform="matrix(0.06172839506172839,0,0,0.06172839506172839,66.54320987654322,0)" xlink:href="#Z"/><use transform="matrix(0.06172839506172839,0,0,0.06172839506172839,71.41975308641976,0)" xlink:href="#ad"/><use transform="matrix(0.06172839506172839,0,0,0.06172839506172839,83.76543209876544,0)" xlink:href="#ab"/><use transform="matrix(0.06172839506172839,0,0,0.06172839506172839,89.93827160493828,0)" xlink:href="#ag"/></g><g id="i"><use transform="matrix(0.06172839506172839,0,0,0.06172839506172839,0,0)" xlink:href="#aj"/><use transform="matrix(0.06172839506172839,0,0,0.06172839506172839,11.11111111111111,0)" xlink:href="#Z"/><use transform="matrix(0.06172839506172839,0,0,0.06172839506172839,15.987654320987653,0)" xlink:href="#ac"/><use transform="matrix(0.06172839506172839,0,0,0.06172839506172839,28.333333333333332,0)" xlink:href="#Y"/><use transform="matrix(0.06172839506172839,0,0,0.06172839506172839,33.20987654320987,0)" xlink:href="#X"/><use transform="matrix(0.06172839506172839,0,0,0.06172839506172839,45.55555555555555,0)" xlink:href="#ab"/><use transform="matrix(0.06172839506172839,0,0,0.06172839506172839,51.72839506172839,0)" xlink:href="#Z"/><use transform="matrix(0.06172839506172839,0,0,0.06172839506172839,56.60493827160494,0)" xlink:href="#ac"/><use transform="matrix(0.06172839506172839,0,0,0.06172839506172839,68.95061728395062,0)" xlink:href="#ad"/></g><path fill="#333" d="M30 0v-248h187v28H63v79h144v27H63v87h162V0H30" id="an"/><path fill="#333" d="M100-194c63 0 86 42 84 106H49c0 40 14 67 53 68 26 1 43-12 49-29l28 8c-11 28-37 45-77 45C44 4 14-33 15-96c1-61 26-98 85-98zm52 81c6-60-76-77-97-28-3 7-6 17-6 28h103zm-74-98c8-23 27-35 38-54h36v5l-58 49H78" id="ao"/><g id="j"><use transform="matrix(0.06172839506172839,0,0,0.06172839506172839,0,0)" xlink:href="#ah"/><use transform="matrix(0.06172839506172839,0,0,0.06172839506172839,6.172839506172839,0)" xlink:href="#an"/><use transform="matrix(0.06172839506172839,0,0,0.06172839506172839,20.98765432098765,0)" xlink:href="#ad"/><use transform="matrix(0.06172839506172839,0,0,0.06172839506172839,33.33333333333333,0)" xlink:href="#ab"/><use transform="matrix(0.06172839506172839,0,0,0.06172839506172839,39.50617283950617,0)" xlink:href="#Z"/><use transform="matrix(0.06172839506172839,0,0,0.06172839506172839,44.382716049382715,0)" xlink:href="#ab"/><use transform="matrix(0.06172839506172839,0,0,0.06172839506172839,50.55555555555556,0)" xlink:href="#ao"/></g><path fill="#333" d="M24-248c120-7 223 5 221 122C244-46 201 0 124 0H24v-248zM76-40c74 7 117-18 117-86 0-67-45-88-117-82v168" id="ap"/><path fill="#333" d="M25-224v-37h50v37H25zM25 0v-190h50V0H25" id="aq"/><path fill="#333" d="M133-34C117-15 103 5 69 4 32 3 11-16 11-54c-1-60 55-63 116-61 1-26-3-47-28-47-18 1-26 9-28 27l-52-2c7-38 36-58 82-57s74 22 75 68l1 82c-1 14 12 18 25 15v27c-30 8-71 5-69-32zm-48 3c29 0 43-24 42-57-32 0-66-3-65 30 0 17 8 27 23 27" id="ar"/><path fill="#333" d="M195-6C206 82 75 100 31 46c-4-6-6-13-8-21l49-6c3 16 16 24 34 25 40 0 42-37 40-79-11 22-30 35-61 35-53 0-70-43-70-97 0-56 18-96 73-97 30 0 46 14 59 34l2-30h47zm-90-29c32 0 41-27 41-63 0-35-9-62-40-62-32 0-39 29-40 63 0 36 9 62 39 62" id="as"/><path fill="#333" d="M135-150c-39-12-60 13-60 57V0H25l-1-190h47c2 13-1 29 3 40 6-28 27-53 61-41v41" id="at"/><path fill="#333" d="M220-157c-53 9-28 100-34 157h-49v-107c1-27-5-49-29-50C55-147 81-57 75 0H25l-1-190h47c2 12-1 28 3 38 10-53 101-56 108 0 13-22 24-43 59-42 82 1 51 116 57 194h-49v-107c-1-25-5-48-29-50" id="au"/><path fill="#333" d="M185-48c-13 30-37 53-82 52C43 2 14-33 14-96s30-98 90-98c62 0 83 45 84 108H66c0 31 8 55 39 56 18 0 30-7 34-22zm-45-69c5-46-57-63-70-21-2 6-4 13-4 21h74" id="av"/><g id="k"><use transform="matrix(0.07407407407407407,0,0,0.07407407407407407,0,0)" xlink:href="#ap"/><use transform="matrix(0.07407407407407407,0,0,0.07407407407407407,19.185185185185183,0)" xlink:href="#aq"/><use transform="matrix(0.07407407407407407,0,0,0.07407407407407407,26.592592592592588,0)" xlink:href="#ar"/><use transform="matrix(0.07407407407407407,0,0,0.07407407407407407,41.407407407407405,0)" xlink:href="#as"/><use transform="matrix(0.07407407407407407,0,0,0.07407407407407407,57.629629629629626,0)" xlink:href="#at"/><use transform="matrix(0.07407407407407407,0,0,0.07407407407407407,68,0)" xlink:href="#ar"/><use transform="matrix(0.07407407407407407,0,0,0.07407407407407407,82.81481481481481,0)" xlink:href="#au"/><use transform="matrix(0.07407407407407407,0,0,0.07407407407407407,106.51851851851852,0)" xlink:href="#au"/><use transform="matrix(0.07407407407407407,0,0,0.07407407407407407,130.2222222222222,0)" xlink:href="#av"/></g><path fill="#333" d="M88-194c31-1 46 15 58 34l-1-101h50l1 261h-48c-2-10 0-23-3-31C134-8 116 4 84 4 32 4 16-41 15-95c0-56 19-97 73-99zm17 164c33 0 40-30 41-66 1-37-9-64-41-64s-38 30-39 65c0 43 13 65 39 65" id="aw"/><g id="l"><use transform="matrix(0.07407407407407407,0,0,0.07407407407407407,0,0)" xlink:href="#aw"/><use transform="matrix(0.07407407407407407,0,0,0.07407407407407407,16.22222222222222,0)" xlink:href="#av"/></g><path fill="#333" d="M137-138c1-29-70-34-71-4 15 46 118 7 119 86 1 83-164 76-172 9l43-7c4 19 20 25 44 25 33 8 57-30 24-41C81-84 22-81 20-136c-2-80 154-74 161-7" id="ax"/><path fill="#333" d="M185-48c-13 30-37 53-82 52C43 2 14-33 14-96s30-98 90-98c62 0 83 45 84 108H66c0 31 8 55 39 56 18 0 30-7 34-22zm-45-69c5-46-57-63-70-21-2 6-4 13-4 21h74zm-67-91v-5l45-51h45v8l-60 48H73" id="ay"/><path fill="#333" d="M84 4C32 4 15-41 15-95c0-55 18-99 73-99 29 0 47 12 58 34l2-30h48l-1 265h-49V-32C136-9 114 4 84 4zm21-34c32 0 41-29 41-66 0-36-9-64-40-64-33 0-39 30-40 65 0 43 13 65 39 65" id="az"/><path fill="#333" d="M85 4C-2 5 27-109 22-190h50c7 57-23 150 33 157 60-5 35-97 40-157h50l1 190h-47c-2-12 1-28-3-38-12 25-28 42-61 42" id="aA"/><path fill="#333" d="M135-194c87-1 58 113 63 194h-50c-7-57 23-157-34-157-59 0-34 97-39 157H25l-1-190h47c2 12-1 28 3 38 12-26 28-41 61-42" id="aB"/><path fill="#333" d="M190-63c-7 42-38 67-86 67-59 0-84-38-90-98-12-110 154-137 174-36l-49 2c-2-19-15-32-35-32-30 0-35 28-38 64-6 74 65 87 74 30" id="aC"/><g id="m"><use transform="matrix(0.07407407407407407,0,0,0.07407407407407407,0,0)" xlink:href="#ax"/><use transform="matrix(0.07407407407407407,0,0,0.07407407407407407,14.814814814814813,0)" xlink:href="#ay"/><use transform="matrix(0.07407407407407407,0,0,0.07407407407407407,29.629629629629626,0)" xlink:href="#az"/><use transform="matrix(0.07407407407407407,0,0,0.07407407407407407,45.85185185185185,0)" xlink:href="#aA"/><use transform="matrix(0.07407407407407407,0,0,0.07407407407407407,62.07407407407407,0)" xlink:href="#av"/><use transform="matrix(0.07407407407407407,0,0,0.07407407407407407,76.88888888888889,0)" xlink:href="#aB"/><use transform="matrix(0.07407407407407407,0,0,0.07407407407407407,93.1111111111111,0)" xlink:href="#aC"/><use transform="matrix(0.07407407407407407,0,0,0.07407407407407407,107.92592592592592,0)" xlink:href="#av"/></g><path fill="#333" d="M24-248c93 1 206-16 204 79-1 75-69 88-152 82V0H24v-248zm52 121c47 0 100 7 100-41 0-47-54-39-100-39v80" id="aD"/><path fill="#333" d="M140-251c80 0 125 45 125 126S219 4 139 4C58 4 15-44 15-125s44-126 125-126zm-1 214c52 0 73-35 73-88 0-50-21-86-72-86-52 0-73 35-73 86s22 88 72 88" id="aE"/><path fill="#333" d="M169-182c-1-43-94-46-97-3 18 66 151 10 154 114 3 95-165 93-204 36-6-8-10-19-12-30l50-8c3 46 112 56 116 5-17-69-150-10-154-114-4-87 153-88 188-35 5 8 8 18 10 28" id="aF"/><path fill="#333" d="M136-208V0H84v-208H4v-40h212v40h-80" id="aG"/><g id="n"><use transform="matrix(0.07407407407407407,0,0,0.07407407407407407,0,0)" xlink:href="#aD"/><use transform="matrix(0.07407407407407407,0,0,0.07407407407407407,17.77777777777778,0)" xlink:href="#aE"/><use transform="matrix(0.07407407407407407,0,0,0.07407407407407407,38.51851851851852,0)" xlink:href="#aF"/><use transform="matrix(0.07407407407407407,0,0,0.07407407407407407,56.296296296296305,0)" xlink:href="#aG"/></g><path fill="#333" d="M4 7l51-268h42L46 7H4" id="aH"/><path fill="#333" d="M135-194c53 0 70 44 70 98 0 56-19 98-73 100-31 1-45-17-59-34 3 33 2 69 2 105H25l-1-265h48c2 10 0 23 3 31 11-24 29-35 60-35zM114-30c33 0 39-31 40-66 0-38-9-64-40-64-56 0-55 130 0 130" id="aI"/><g id="o"><use transform="matrix(0.07407407407407407,0,0,0.07407407407407407,0,0)" xlink:href="#aH"/><use transform="matrix(0.07407407407407407,0,0,0.07407407407407407,7.4074074074074066,0)" xlink:href="#ar"/><use transform="matrix(0.07407407407407407,0,0,0.07407407407407407,22.22222222222222,0)" xlink:href="#aI"/><use transform="matrix(0.07407407407407407,0,0,0.07407407407407407,38.44444444444444,0)" xlink:href="#aq"/><use transform="matrix(0.07407407407407407,0,0,0.07407407407407407,45.85185185185185,0)" xlink:href="#aH"/><use transform="matrix(0.07407407407407407,0,0,0.07407407407407407,53.25925925925926,0)" xlink:href="#aA"/><use transform="matrix(0.07407407407407407,0,0,0.07407407407407407,69.48148148148147,0)" xlink:href="#ax"/><use transform="matrix(0.07407407407407407,0,0,0.07407407407407407,84.29629629629628,0)" xlink:href="#av"/><use transform="matrix(0.07407407407407407,0,0,0.07407407407407407,99.11111111111109,0)" xlink:href="#at"/><use transform="matrix(0.07407407407407407,0,0,0.07407407407407407,109.48148148148145,0)" xlink:href="#ax"/></g><path d="M18-100v-36l175-74v27L42-118l151 64v27" id="aJ"/><g id="q"><use transform="matrix(0.05,0,0,0.05,0,0)" xlink:href="#aJ"/><use transform="matrix(0.05,0,0,0.05,10.5,0)" xlink:href="#aJ"/><path d="M-.9 1.25h27.8v1.32H-.9z"/></g><path d="M205 0l-28-72H64L36 0H1l101-248h38L239 0h-34zm-38-99l-47-123c-12 45-31 82-46 123h93" id="aK"/><path d="M96-169c-40 0-48 33-48 73s9 75 48 75c24 0 41-14 43-38l32 2c-6 37-31 61-74 61-59 0-76-41-82-99-10-93 101-131 147-64 4 7 5 14 7 22l-32 3c-4-21-16-35-41-35" id="aL"/><path d="M59-47c-2 24 18 29 38 22v24C64 9 27 4 27-40v-127H5v-23h24l9-43h21v43h35v23H59v120" id="aM"/><path d="M100-194c63 0 86 42 84 106H49c0 40 14 67 53 68 26 1 43-12 49-29l28 8c-11 28-37 45-77 45C44 4 14-33 15-96c1-61 26-98 85-98zm52 81c6-60-76-77-97-28-3 7-6 17-6 28h103" id="aN"/><path d="M84 4C-5 8 30-112 23-190h32v120c0 31 7 50 39 49 72-2 45-101 50-169h31l1 190h-30c-1-10 1-25-2-33-11 22-28 36-60 37" id="aO"/><path d="M114-163C36-179 61-72 57 0H25l-1-190h30c1 12-1 29 2 39 6-27 23-49 58-41v29" id="aP"/><g id="r"><use transform="matrix(0.05,0,0,0.05,0,0)" xlink:href="#aK"/><use transform="matrix(0.05,0,0,0.05,12,0)" xlink:href="#aL"/><use transform="matrix(0.05,0,0,0.05,21,0)" xlink:href="#aM"/><use transform="matrix(0.05,0,0,0.05,26,0)" xlink:href="#aN"/><use transform="matrix(0.05,0,0,0.05,36,0)" xlink:href="#aO"/><use transform="matrix(0.05,0,0,0.05,46,0)" xlink:href="#aP"/><path d="M-.9 1.25h58.75v1.32H-.9z"/></g><path d="M18-27v-27l151-64-151-65v-27l175 74v36" id="aQ"/><g id="s"><use transform="matrix(0.05,0,0,0.05,0,0)" xlink:href="#aQ"/><use transform="matrix(0.05,0,0,0.05,10.5,0)" xlink:href="#aQ"/><path d="M-.9 1.25h22.8v1.32H-.9z"/></g><path d="M212-179c-10-28-35-45-73-45-59 0-87 40-87 99 0 60 29 101 89 101 43 0 62-24 78-52l27 14C228-24 195 4 139 4 59 4 22-46 18-125c-6-104 99-153 187-111 19 9 31 26 39 46" id="aR"/><path d="M24 0v-261h32V0H24" id="aS"/><path d="M24-231v-30h32v30H24zM24 0v-190h32V0H24" id="aT"/><path d="M117-194c89-4 53 116 60 194h-32v-121c0-31-8-49-39-48C34-167 62-67 57 0H25l-1-190h30c1 10-1 24 2 32 11-22 29-35 61-36" id="aU"/><g id="t"><use transform="matrix(0.05,0,0,0.05,0,0)" xlink:href="#aR"/><use transform="matrix(0.05,0,0,0.05,12.950000000000001,0)" xlink:href="#aS"/><use transform="matrix(0.05,0,0,0.05,16.900000000000002,0)" xlink:href="#aT"/><use transform="matrix(0.05,0,0,0.05,20.85,0)" xlink:href="#aN"/><use transform="matrix(0.05,0,0,0.05,30.85,0)" xlink:href="#aU"/><use transform="matrix(0.05,0,0,0.05,40.85,0)" xlink:href="#aM"/><path d="M-.9 1.25h47.65v1.32H-.9z"/></g><path d="M185-189c-5-48-123-54-124 2 14 75 158 14 163 119 3 78-121 87-175 55-17-10-28-26-33-46l33-7c5 56 141 63 141-1 0-78-155-14-162-118-5-82 145-84 179-34 5 7 8 16 11 25" id="aV"/><path d="M179-190L93 31C79 59 56 82 12 73V49c39 6 53-20 64-50L1-190h34L92-34l54-156h33" id="aW"/><path d="M135-143c-3-34-86-38-87 0 15 53 115 12 119 90S17 21 10-45l28-5c4 36 97 45 98 0-10-56-113-15-118-90-4-57 82-63 122-42 12 7 21 19 24 35" id="aX"/><path d="M100-194c63 0 86 42 84 106H49c0 40 14 67 53 68 26 1 43-12 49-29l28 8c-11 28-37 45-77 45C44 4 14-33 15-96c1-61 26-98 85-98zm52 81c6-60-76-77-97-28-3 7-6 17-6 28h103zm-36-98l-58-49v-5h36c12 19 30 32 38 54h-16" id="aY"/><path d="M210-169c-67 3-38 105-44 169h-31v-121c0-29-5-50-35-48C34-165 62-65 56 0H25l-1-190h30c1 10-1 24 2 32 10-44 99-50 107 0 11-21 27-35 58-36 85-2 47 119 55 194h-31v-121c0-29-5-49-35-48" id="aZ"/><g id="u"><use transform="matrix(0.05,0,0,0.05,0,0)" xlink:href="#aV"/><use transform="matrix(0.05,0,0,0.05,12,0)" xlink:href="#aW"/><use transform="matrix(0.05,0,0,0.05,21,0)" xlink:href="#aX"/><use transform="matrix(0.05,0,0,0.05,30,0)" xlink:href="#aM"/><use transform="matrix(0.05,0,0,0.05,35,0)" xlink:href="#aY"/><use transform="matrix(0.05,0,0,0.05,45,0)" xlink:href="#aZ"/><use transform="matrix(0.05,0,0,0.05,59.95,0)" xlink:href="#aN"/><path d="M-.9 1.25h71.75v1.32H-.9z"/></g><path fill="#333" d="M240-174c0 40-23 61-54 70L253 0h-59l-57-94H76V0H24v-248c93 4 217-23 216 74zM76-134c48-2 112 12 112-38 0-48-66-32-112-35v73" id="ba"/><path fill="#333" d="M110-194c64 0 96 36 96 99 0 64-35 99-97 99-61 0-95-36-95-99 0-62 34-99 96-99zm-1 164c35 0 45-28 45-65 0-40-10-65-43-65-34 0-45 26-45 65 0 36 10 65 43 65" id="bb"/><g id="v"><use transform="matrix(0.04938271604938272,0,0,0.04938271604938272,0,0)" xlink:href="#ba"/><use transform="matrix(0.04938271604938272,0,0,0.04938271604938272,12.790123456790125,0)" xlink:href="#ay"/><use transform="matrix(0.04938271604938272,0,0,0.04938271604938272,22.66666666666667,0)" xlink:href="#aI"/><use transform="matrix(0.04938271604938272,0,0,0.04938271604938272,33.48148148148149,0)" xlink:href="#bb"/><use transform="matrix(0.04938271604938272,0,0,0.04938271604938272,44.296296296296305,0)" xlink:href="#aB"/><use transform="matrix(0.04938271604938272,0,0,0.04938271604938272,55.111111111111114,0)" xlink:href="#ax"/><use transform="matrix(0.04938271604938272,0,0,0.04938271604938272,64.98765432098767,0)" xlink:href="#av"/></g><path fill="#333" d="M182-182c0 78-84 86-111 141h115V0H12c-6-101 99-100 120-180 1-22-12-31-33-32-23 0-32 14-35 34l-49-3c5-45 32-70 84-70 51 0 83 22 83 69" id="bc"/><path fill="#333" d="M101-251c68 0 84 54 84 127C185-50 166 4 99 4S15-52 14-124c-1-75 17-127 87-127zm-1 216c37-5 36-46 36-89s4-89-36-89c-39 0-36 45-36 89 0 43-3 85 36 89" id="bd"/><path fill="#333" d="M23 0v-37h61v-169l-59 37v-38l62-41h46v211h57V0H23" id="be"/><g id="w"><use transform="matrix(0.04938271604938272,0,0,0.04938271604938272,0,0)" xlink:href="#bc"/><use transform="matrix(0.04938271604938272,0,0,0.04938271604938272,9.876543209876544,0)" xlink:href="#bd"/><use transform="matrix(0.04938271604938272,0,0,0.04938271604938272,19.75308641975309,0)" xlink:href="#be"/></g><path fill="#333" d="M14-72v-43h91v43H14" id="bf"/><use transform="matrix(0.04938271604938272,0,0,0.04938271604938272,0,0)" xlink:href="#bf" id="x"/><path fill="#333" d="M238-95c0 69-44 99-111 99C63 4 22-25 22-93v-155h51v151c-1 38 19 59 55 60 90 1 49-130 58-211h52v153" id="bg"/><g id="y"><use transform="matrix(0.04938271604938272,0,0,0.04938271604938272,0,0)" xlink:href="#bg"/><use transform="matrix(0.04938271604938272,0,0,0.04938271604938272,12.790123456790125,0)" xlink:href="#ax"/><use transform="matrix(0.04938271604938272,0,0,0.04938271604938272,22.66666666666667,0)" xlink:href="#av"/><use transform="matrix(0.04938271604938272,0,0,0.04938271604938272,32.543209876543216,0)" xlink:href="#at"/></g><g id="z"><use transform="matrix(0.04938271604938272,0,0,0.04938271604938272,0,0)" xlink:href="#at"/><use transform="matrix(0.04938271604938272,0,0,0.04938271604938272,6.913580246913581,0)" xlink:href="#av"/><use transform="matrix(0.04938271604938272,0,0,0.04938271604938272,16.790123456790127,0)" xlink:href="#ax"/><use transform="matrix(0.04938271604938272,0,0,0.04938271604938272,26.666666666666668,0)" xlink:href="#ax"/><use transform="matrix(0.04938271604938272,0,0,0.04938271604938272,36.543209876543216,0)" xlink:href="#bb"/><use transform="matrix(0.04938271604938272,0,0,0.04938271604938272,47.35802469135803,0)" xlink:href="#aA"/><use transform="matrix(0.04938271604938272,0,0,0.04938271604938272,58.17283950617284,0)" xlink:href="#at"/><use transform="matrix(0.04938271604938272,0,0,0.04938271604938272,65.08641975308643,0)" xlink:href="#aC"/><use transform="matrix(0.04938271604938272,0,0,0.04938271604938272,74.96296296296298,0)" xlink:href="#av"/></g><path fill="#333" d="M115-3C79 11 28 4 28-45v-112H4v-33h27l15-45h31v45h36v33H77v99c-1 23 16 31 38 25v30" id="bh"/><g id="A"><use transform="matrix(0.04938271604938272,0,0,0.04938271604938272,0,0)" xlink:href="#aC"/><use transform="matrix(0.04938271604938272,0,0,0.04938271604938272,9.876543209876544,0)" xlink:href="#at"/><use transform="matrix(0.04938271604938272,0,0,0.04938271604938272,16.790123456790127,0)" xlink:href="#av"/><use transform="matrix(0.04938271604938272,0,0,0.04938271604938272,26.666666666666668,0)" xlink:href="#ar"/><use transform="matrix(0.04938271604938272,0,0,0.04938271604938272,36.543209876543216,0)" xlink:href="#bh"/><use transform="matrix(0.04938271604938272,0,0,0.04938271604938272,42.41975308641976,0)" xlink:href="#av"/><use transform="matrix(0.04938271604938272,0,0,0.04938271604938272,52.2962962962963,0)" xlink:href="#aw"/></g><path fill="#333" d="M24 0v-248h52V0H24" id="bi"/><g id="B"><use transform="matrix(0.04938271604938272,0,0,0.04938271604938272,0,0)" xlink:href="#bi"/><use transform="matrix(0.04938271604938272,0,0,0.04938271604938272,4.938271604938272,0)" xlink:href="#aB"/><use transform="matrix(0.04938271604938272,0,0,0.04938271604938272,15.753086419753087,0)" xlink:href="#ax"/><use transform="matrix(0.04938271604938272,0,0,0.04938271604938272,25.629629629629633,0)" xlink:href="#av"/><use transform="matrix(0.04938271604938272,0,0,0.04938271604938272,35.50617283950618,0)" xlink:href="#at"/><use transform="matrix(0.04938271604938272,0,0,0.04938271604938272,42.41975308641976,0)" xlink:href="#bh"/><use transform="matrix(0.04938271604938272,0,0,0.04938271604938272,48.296296296296305,0)" xlink:href="#aq"/><use transform="matrix(0.04938271604938272,0,0,0.04938271604938272,53.23456790123457,0)" xlink:href="#bb"/><use transform="matrix(0.04938271604938272,0,0,0.04938271604938272,64.0493827160494,0)" xlink:href="#aB"/></g><g id="C"><use transform="matrix(0.04938271604938272,0,0,0.04938271604938272,0,0)" xlink:href="#av"/><use transform="matrix(0.04938271604938272,0,0,0.04938271604938272,9.876543209876544,0)" xlink:href="#aB"/></g><path fill="#333" d="M135-194c52 0 70 43 70 98 0 56-19 99-73 100-30 1-46-15-58-35L72 0H24l1-261h50v104c11-23 29-37 60-37zM114-30c31 0 40-27 40-66 0-37-7-63-39-63s-41 28-41 65c0 36 8 64 40 64" id="bj"/><g id="D"><use transform="matrix(0.04938271604938272,0,0,0.04938271604938272,0,0)" xlink:href="#bj"/><use transform="matrix(0.04938271604938272,0,0,0.04938271604938272,10.814814814814815,0)" xlink:href="#ar"/><use transform="matrix(0.04938271604938272,0,0,0.04938271604938272,20.69135802469136,0)" xlink:href="#ax"/><use transform="matrix(0.04938271604938272,0,0,0.04938271604938272,30.567901234567906,0)" xlink:href="#av"/></g><g id="E"><use transform="matrix(0.04938271604938272,0,0,0.04938271604938272,0,0)" xlink:href="#aw"/><use transform="matrix(0.04938271604938272,0,0,0.04938271604938272,10.814814814814815,0)" xlink:href="#av"/></g><g id="F"><use transform="matrix(0.04938271604938272,0,0,0.04938271604938272,0,0)" xlink:href="#aw"/><use transform="matrix(0.04938271604938272,0,0,0.04938271604938272,10.814814814814815,0)" xlink:href="#bb"/><use transform="matrix(0.04938271604938272,0,0,0.04938271604938272,21.62962962962963,0)" xlink:href="#aB"/><use transform="matrix(0.04938271604938272,0,0,0.04938271604938272,32.44444444444444,0)" xlink:href="#aB"/><use transform="matrix(0.04938271604938272,0,0,0.04938271604938272,43.25925925925926,0)" xlink:href="#ay"/><use transform="matrix(0.04938271604938272,0,0,0.04938271604938272,53.135802469135804,0)" xlink:href="#av"/><use transform="matrix(0.04938271604938272,0,0,0.04938271604938272,63.01234567901235,0)" xlink:href="#ax"/></g><path fill="#333" d="M165-50V0h-47v-50H5v-38l105-160h55v161h33v37h-33zm-47-37l2-116L46-87h72" id="bk"/><g id="G"><use transform="matrix(0.04938271604938272,0,0,0.04938271604938272,0,0)" xlink:href="#bk"/><use transform="matrix(0.04938271604938272,0,0,0.04938271604938272,9.876543209876544,0)" xlink:href="#bd"/><use transform="matrix(0.04938271604938272,0,0,0.04938271604938272,19.75308641975309,0)" xlink:href="#be"/></g><path fill="#333" d="M114-157C55-157 80-60 75 0H25v-261h50l-1 109c12-26 28-41 61-42 86-1 58 113 63 194h-50c-7-57 23-157-34-157" id="bl"/><path fill="#333" d="M12 0v-35l95-120H19v-35h142v35L67-36h103V0H12" id="bm"/><g id="H"><use transform="matrix(0.04938271604938272,0,0,0.04938271604938272,0,0)" xlink:href="#bg"/><use transform="matrix(0.04938271604938272,0,0,0.04938271604938272,12.790123456790125,0)" xlink:href="#aB"/><use transform="matrix(0.04938271604938272,0,0,0.04938271604938272,23.60493827160494,0)" xlink:href="#ar"/><use transform="matrix(0.04938271604938272,0,0,0.04938271604938272,33.48148148148148,0)" xlink:href="#aA"/><use transform="matrix(0.04938271604938272,0,0,0.04938271604938272,44.2962962962963,0)" xlink:href="#bh"/><use transform="matrix(0.04938271604938272,0,0,0.04938271604938272,50.17283950617284,0)" xlink:href="#bl"/><use transform="matrix(0.04938271604938272,0,0,0.04938271604938272,60.98765432098766,0)" xlink:href="#bb"/><use transform="matrix(0.04938271604938272,0,0,0.04938271604938272,71.80246913580247,0)" xlink:href="#at"/><use transform="matrix(0.04938271604938272,0,0,0.04938271604938272,78.71604938271605,0)" xlink:href="#aq"/><use transform="matrix(0.04938271604938272,0,0,0.04938271604938272,83.65432098765433,0)" xlink:href="#bm"/><use transform="matrix(0.04938271604938272,0,0,0.04938271604938272,92.54320987654322,0)" xlink:href="#av"/><use transform="matrix(0.04938271604938272,0,0,0.04938271604938272,102.41975308641976,0)" xlink:href="#aw"/></g><path fill="#333" d="M125-100v72H85v-72H15v-39h70v-72h40v72h71v39h-71" id="bn"/><use transform="matrix(0.04938271604938272,0,0,0.04938271604938272,0,0)" xlink:href="#bn" id="I"/><path fill="#333" d="M128 0H69L1-190h53L99-40l48-150h52" id="bo"/><path fill="#333" d="M25 0v-261h50V0H25" id="bp"/><g id="J"><use transform="matrix(0.04938271604938272,0,0,0.04938271604938272,0,0)" xlink:href="#bi"/><use transform="matrix(0.04938271604938272,0,0,0.04938271604938272,4.938271604938272,0)" xlink:href="#aB"/><use transform="matrix(0.04938271604938272,0,0,0.04938271604938272,15.753086419753087,0)" xlink:href="#bo"/><use transform="matrix(0.04938271604938272,0,0,0.04938271604938272,25.629629629629633,0)" xlink:href="#ar"/><use transform="matrix(0.04938271604938272,0,0,0.04938271604938272,35.50617283950618,0)" xlink:href="#bp"/><use transform="matrix(0.04938271604938272,0,0,0.04938271604938272,40.44444444444445,0)" xlink:href="#aq"/><use transform="matrix(0.04938271604938272,0,0,0.04938271604938272,45.38271604938272,0)" xlink:href="#aw"/></g><g id="K"><use transform="matrix(0.04938271604938272,0,0,0.04938271604938272,0,0)" xlink:href="#aC"/><use transform="matrix(0.04938271604938272,0,0,0.04938271604938272,9.876543209876544,0)" xlink:href="#at"/><use transform="matrix(0.04938271604938272,0,0,0.04938271604938272,16.790123456790127,0)" xlink:href="#av"/><use transform="matrix(0.04938271604938272,0,0,0.04938271604938272,26.666666666666668,0)" xlink:href="#aw"/><use transform="matrix(0.04938271604938272,0,0,0.04938271604938272,37.48148148148149,0)" xlink:href="#av"/><use transform="matrix(0.04938271604938272,0,0,0.04938271604938272,47.35802469135803,0)" xlink:href="#aB"/><use transform="matrix(0.04938271604938272,0,0,0.04938271604938272,58.17283950617284,0)" xlink:href="#bh"/><use transform="matrix(0.04938271604938272,0,0,0.04938271604938272,64.0493827160494,0)" xlink:href="#aq"/><use transform="matrix(0.04938271604938272,0,0,0.04938271604938272,68.98765432098767,0)" xlink:href="#ar"/><use transform="matrix(0.04938271604938272,0,0,0.04938271604938272,78.86419753086422,0)" xlink:href="#bp"/><use transform="matrix(0.04938271604938272,0,0,0.04938271604938272,83.80246913580248,0)" xlink:href="#ax"/></g><path fill="#333" d="M24 0v-248h195v40H76v63h132v40H76v65h150V0H24" id="bq"/><g id="L"><use transform="matrix(0.04938271604938272,0,0,0.04938271604938272,0,0)" xlink:href="#bq"/><use transform="matrix(0.04938271604938272,0,0,0.04938271604938272,11.851851851851853,0)" xlink:href="#aB"/><use transform="matrix(0.04938271604938272,0,0,0.04938271604938272,22.666666666666668,0)" xlink:href="#bo"/><use transform="matrix(0.04938271604938272,0,0,0.04938271604938272,32.543209876543216,0)" xlink:href="#bb"/><use transform="matrix(0.04938271604938272,0,0,0.04938271604938272,43.35802469135803,0)" xlink:href="#aq"/><use transform="matrix(0.04938271604938272,0,0,0.04938271604938272,48.296296296296305,0)" xlink:href="#ax"/></g><path fill="#333" d="M62-158H24l-5-90h48" id="br"/><g id="M"><use transform="matrix(0.04938271604938272,0,0,0.04938271604938272,0,0)" xlink:href="#aw"/><use transform="matrix(0.04938271604938272,0,0,0.04938271604938272,10.814814814814815,0)" xlink:href="#br"/><use transform="matrix(0.04938271604938272,0,0,0.04938271604938272,15.012345679012345,0)" xlink:href="#aA"/><use transform="matrix(0.04938271604938272,0,0,0.04938271604938272,25.827160493827158,0)" xlink:href="#aB"/><use transform="matrix(0.04938271604938272,0,0,0.04938271604938272,36.641975308641975,0)" xlink:href="#av"/></g><path fill="#333" d="M185-48c-13 30-37 53-82 52C43 2 14-33 14-96s30-98 90-98c62 0 83 45 84 108H66c0 31 8 55 39 56 18 0 30-7 34-22zm-45-69c5-46-57-63-70-21-2 6-4 13-4 21h74zm29-96v5h-28c-13-11-23-24-37-34l-37 34H39c9-26 32-39 45-61h41" id="bs"/><g id="N"><use transform="matrix(0.04938271604938272,0,0,0.04938271604938272,0,0)" xlink:href="#at"/><use transform="matrix(0.04938271604938272,0,0,0.04938271604938272,6.913580246913581,0)" xlink:href="#av"/><use transform="matrix(0.04938271604938272,0,0,0.04938271604938272,16.790123456790127,0)" xlink:href="#az"/><use transform="matrix(0.04938271604938272,0,0,0.04938271604938272,27.604938271604947,0)" xlink:href="#aA"/><use transform="matrix(0.04938271604938272,0,0,0.04938271604938272,38.41975308641976,0)" xlink:href="#bs"/><use transform="matrix(0.04938271604938272,0,0,0.04938271604938272,48.296296296296305,0)" xlink:href="#bh"/><use transform="matrix(0.04938271604938272,0,0,0.04938271604938272,54.17283950617284,0)" xlink:href="#av"/></g><g id="O"><use transform="matrix(0.04938271604938272,0,0,0.04938271604938272,0,0)" xlink:href="#aD"/><use transform="matrix(0.04938271604938272,0,0,0.04938271604938272,11.851851851851853,0)" xlink:href="#aE"/><use transform="matrix(0.04938271604938272,0,0,0.04938271604938272,25.679012345679016,0)" xlink:href="#aF"/><use transform="matrix(0.04938271604938272,0,0,0.04938271604938272,37.53086419753087,0)" xlink:href="#aG"/></g><g id="P"><use transform="matrix(0.04938271604938272,0,0,0.04938271604938272,0,0)" xlink:href="#aH"/><use transform="matrix(0.04938271604938272,0,0,0.04938271604938272,4.938271604938272,0)" xlink:href="#ar"/><use transform="matrix(0.04938271604938272,0,0,0.04938271604938272,14.814814814814817,0)" xlink:href="#aI"/><use transform="matrix(0.04938271604938272,0,0,0.04938271604938272,25.629629629629633,0)" xlink:href="#aq"/><use transform="matrix(0.04938271604938272,0,0,0.04938271604938272,30.567901234567906,0)" xlink:href="#aH"/><use transform="matrix(0.04938271604938272,0,0,0.04938271604938272,35.50617283950618,0)" xlink:href="#aA"/><use transform="matrix(0.04938271604938272,0,0,0.04938271604938272,46.320987654320994,0)" xlink:href="#ax"/><use transform="matrix(0.04938271604938272,0,0,0.04938271604938272,56.19753086419754,0)" xlink:href="#av"/><use transform="matrix(0.04938271604938272,0,0,0.04938271604938272,66.07407407407408,0)" xlink:href="#at"/><use transform="matrix(0.04938271604938272,0,0,0.04938271604938272,72.98765432098766,0)" xlink:href="#ax"/></g><g id="Q"><use transform="matrix(0.04938271604938272,0,0,0.04938271604938272,0,0)" xlink:href="#bk"/><use transform="matrix(0.04938271604938272,0,0,0.04938271604938272,9.876543209876544,0)" xlink:href="#bc"/><use transform="matrix(0.04938271604938272,0,0,0.04938271604938272,19.75308641975309,0)" xlink:href="#bc"/></g><g id="R"><use transform="matrix(0.04938271604938272,0,0,0.04938271604938272,0,0)" xlink:href="#bg"/><use transform="matrix(0.04938271604938272,0,0,0.04938271604938272,12.790123456790125,0)" xlink:href="#aB"/><use transform="matrix(0.04938271604938272,0,0,0.04938271604938272,23.60493827160494,0)" xlink:href="#aI"/><use transform="matrix(0.04938271604938272,0,0,0.04938271604938272,34.41975308641975,0)" xlink:href="#at"/><use transform="matrix(0.04938271604938272,0,0,0.04938271604938272,41.333333333333336,0)" xlink:href="#bb"/><use transform="matrix(0.04938271604938272,0,0,0.04938271604938272,52.14814814814815,0)" xlink:href="#aC"/><use transform="matrix(0.04938271604938272,0,0,0.04938271604938272,62.0246913580247,0)" xlink:href="#av"/><use transform="matrix(0.04938271604938272,0,0,0.04938271604938272,71.90123456790124,0)" xlink:href="#ax"/><use transform="matrix(0.04938271604938272,0,0,0.04938271604938272,81.77777777777779,0)" xlink:href="#ax"/><use transform="matrix(0.04938271604938272,0,0,0.04938271604938272,91.65432098765433,0)" xlink:href="#ar"/><use transform="matrix(0.04938271604938272,0,0,0.04938271604938272,101.53086419753087,0)" xlink:href="#bj"/><use transform="matrix(0.04938271604938272,0,0,0.04938271604938272,112.34567901234568,0)" xlink:href="#bp"/><use transform="matrix(0.04938271604938272,0,0,0.04938271604938272,117.28395061728394,0)" xlink:href="#av"/></g><path fill="#333" d="M123 10C108 53 80 86 19 72V37c35 8 53-11 59-39L3-190h52l48 148c12-52 28-100 44-148h51" id="bt"/><g id="S"><use transform="matrix(0.04938271604938272,0,0,0.04938271604938272,0,0)" xlink:href="#bq"/><use transform="matrix(0.04938271604938272,0,0,0.04938271604938272,11.851851851851853,0)" xlink:href="#aB"/><use transform="matrix(0.04938271604938272,0,0,0.04938271604938272,22.666666666666668,0)" xlink:href="#bh"/><use transform="matrix(0.04938271604938272,0,0,0.04938271604938272,28.543209876543212,0)" xlink:href="#aq"/><use transform="matrix(0.04938271604938272,0,0,0.04938271604938272,33.48148148148148,0)" xlink:href="#bh"/><use transform="matrix(0.04938271604938272,0,0,0.04938271604938272,39.358024691358025,0)" xlink:href="#bt"/></g><path fill="#333" d="M67-125c0 53 21 87 73 88 37 1 54-22 65-47l45 17C233-25 199 4 140 4 58 4 20-42 15-125 8-235 124-281 211-232c18 10 29 29 36 50l-46 12c-8-25-30-41-62-41-52 0-71 34-72 86" id="bu"/><g id="T"><use transform="matrix(0.04938271604938272,0,0,0.04938271604938272,0,0)" xlink:href="#bu"/><use transform="matrix(0.04938271604938272,0,0,0.04938271604938272,12.790123456790125,0)" xlink:href="#bb"/><use transform="matrix(0.04938271604938272,0,0,0.04938271604938272,23.60493827160494,0)" xlink:href="#aB"/><use transform="matrix(0.04938271604938272,0,0,0.04938271604938272,34.41975308641975,0)" xlink:href="#bh"/><use transform="matrix(0.04938271604938272,0,0,0.04938271604938272,40.2962962962963,0)" xlink:href="#at"/><use transform="matrix(0.04938271604938272,0,0,0.04938271604938272,47.20987654320988,0)" xlink:href="#ar"/><use transform="matrix(0.04938271604938272,0,0,0.04938271604938272,57.086419753086425,0)" xlink:href="#aq"/><use transform="matrix(0.04938271604938272,0,0,0.04938271604938272,62.0246913580247,0)" xlink:href="#aB"/><use transform="matrix(0.04938271604938272,0,0,0.04938271604938272,72.8395061728395,0)" xlink:href="#bh"/><use transform="matrix(0.04938271604938272,0,0,0.04938271604938272,78.71604938271605,0)" xlink:href="#av"/></g><g id="U"><use transform="matrix(0.04938271604938272,0,0,0.04938271604938272,0,0)" xlink:href="#bo"/><use transform="matrix(0.04938271604938272,0,0,0.04938271604938272,9.876543209876544,0)" xlink:href="#aq"/><use transform="matrix(0.04938271604938272,0,0,0.04938271604938272,14.814814814814817,0)" xlink:href="#bb"/><use transform="matrix(0.04938271604938272,0,0,0.04938271604938272,25.629629629629633,0)" xlink:href="#bp"/><use transform="matrix(0.04938271604938272,0,0,0.04938271604938272,30.567901234567906,0)" xlink:href="#ar"/><use transform="matrix(0.04938271604938272,0,0,0.04938271604938272,40.44444444444445,0)" xlink:href="#bh"/><use transform="matrix(0.04938271604938272,0,0,0.04938271604938272,46.320987654320994,0)" xlink:href="#aq"/><use transform="matrix(0.04938271604938272,0,0,0.04938271604938272,51.25925925925927,0)" xlink:href="#bb"/><use transform="matrix(0.04938271604938272,0,0,0.04938271604938272,62.074074074074076,0)" xlink:href="#aB"/></g><g id="V"><use transform="matrix(0.04938271604938272,0,0,0.04938271604938272,0,0)" xlink:href="#au"/><use transform="matrix(0.04938271604938272,0,0,0.04938271604938272,15.80246913580247,0)" xlink:href="#av"/><use transform="matrix(0.04938271604938272,0,0,0.04938271604938272,25.679012345679016,0)" xlink:href="#ax"/><use transform="matrix(0.04938271604938272,0,0,0.04938271604938272,35.55555555555556,0)" xlink:href="#ax"/><use transform="matrix(0.04938271604938272,0,0,0.04938271604938272,45.4320987654321,0)" xlink:href="#ar"/><use transform="matrix(0.04938271604938272,0,0,0.04938271604938272,55.308641975308646,0)" xlink:href="#as"/><use transform="matrix(0.04938271604938272,0,0,0.04938271604938272,66.12345679012346,0)" xlink:href="#av"/></g></defs></g></svg>